<?xml version="1.0" encoding="UTF-8"?><svg id="_イヤー_2" xmlns="http://www.w3.org/2000/svg" xmlns:xlink="http://www.w3.org/1999/xlink" viewBox="0 0 320 320"><defs><style>.cls-1{fill:#ff0;}.cls-2{fill:#099;}</style><symbol id="_園Logo" viewBox="0 0 320 320"><g><path class="cls-2" d="M320,140.68c0-37.74-16.9-72-44.4-97.26,1.83-5.86,3.06-12.07,3.8-18.3-7.84,1-14.67,2.71-20.6,4.9C231.59,11.21,197.29,0,160,0S86.32,11.91,58.73,31.77c-5.85-2.13-12.58-3.79-20.27-4.77,.75,6.27,1.99,12.51,3.83,18.4C16.04,70.46,0,103.92,0,140.68c0,73.24,63.65,133.39,144.95,140.06-1.11,9.45-3.28,18.76-6.61,27.61-3.17,8.24,9.06,14.52,17.1,10.29,7.59-3.88,10.3-21.74,10.67-37.39,85.53-2.83,153.89-64.68,153.89-140.57Z"/><path class="cls-1" d="M196.66,214.51l-18.97,19.96-18.96-19.96h0s-.8,.89-17.86,19.96l-17.87-19.96h0c-1,.93-1.95,1.89-2.83,2.89-5.25,5.94-8.32,13.13-8.32,20.87,0,20.47,21.49,37.07,47.99,37.07s47.99-16.6,47.99-37.07c0-9.04-4.19-17.33-11.16-23.76"/></g></symbol></defs><g id="_イヤー_1-2"><use width="320" height="320" xlink:href="#_園Logo"/></g></svg>