<?xml version="1.0" encoding="UTF-8"?><svg xmlns="http://www.w3.org/2000/svg" viewBox="0 0 10800.71 2594.54"><defs><style>.cls-1{fill:none;stroke:#000;stroke-linecap:round;stroke-linejoin:round;stroke-width:.71px;}.cls-2{fill:#f4f0ee;}.cls-3{fill:#fff;}.cls-4{fill:#fdeda4;}.cls-5{fill:#b0cd96;}.cls-6{fill:#afdafe;}.cls-7{fill:#cbcccd;}</style></defs><g id="BACKGROUND"><g id="LWPOLYLINE"><g><rect class="cls-7" x=".35" y=".35" width="10800" height="2593.83"/><rect class="cls-1" x=".35" y=".35" width="10800" height="2593.83"/></g></g></g><g id="LINES"><g id="LINE"><g><path class="cls-3" d="M10800.35,2418.23v15.27l-99.6-55.11-48.72-40.17-22.23-6.84-44.43,15.36-30.27,42.36-22.65-32.58,36.06-67.86-142.47-76.5-7.08,6.72-23.16-24.18,6.81-3.87,21.03,6.66-16.11-16.47,1.14-5.25,7.83,1.71,22.32,11.82,39.78,22.32,87.75,49.2,9.03,5.07,14.01-4.8,24.51-.87,65.19,7.86,121.26-13.23v36.27l-64.02,7.53-64.32-1.74-26.28,16.2,49.89,45.93,104.73-17.4v17.16l-79.95,12.75,79.95,46.68Zm-185.67-112.59l1.74-10.92-16.2-3.51-2.61,12.69,17.07,1.74Z"/><path class="cls-3" d="M9023.36,712.25l427.92,146.19,54.72-158.13-182.94-48.72-12.81,41.04-14.52-.87,8.52-52.98-225.45-66.51-12.03,41.04-8.25-1.02,5.37-43.71-34.68-9.42-10.53-2.88-9.63-2.61-20.79,97.71-2.85,47.91,29.64,10.14,8.31,2.82Zm-838.77,15.27l-.45,1.14-29.76,56.43,21.9,7.89,29.76-56.88-21.45-8.58Zm2495.1,606.24l79.65,1.26-55.02-272.46-117.9-35.37-46.05,91.53,48.96,18.21,14.91,36.84,3.51,53.52-35.97,10.53-57.9-17.55-31.59,56.16,60.18,93v77.91l64.56,12.63-.69,30.18,14.04,3.51,61.77-59.67,9.12,4.23-68.79,62.46,14.04,21.75-7.05,18.6-8.4,22.11,14.76,42.12,133.35,59.67,7.71-16.86-7.02-82.11,7.02-30.18-16.14-190.23-72.84,1.02-26.82,.39-34.38-58.95,21.03-44.22,14.04,4.92-14.04,46.32,21.78,38.58,10.17,.15Zm120.66,785.73v26.52l-82.8-39.06-150.99-71.28-29.79-14.04-23.97-11.31-14.01,11.37-17.52,1.74-46.32,110.19-18.45,43.86-7.83-1.71,11.82-54.27-44.49,32.22-9.15,16.89-64.38-49.35,55.32,16.83,7.32,2.22,65.13-43.11,32.79-84.48-13.02-32.79,19.77-30.54,30.09,.45,69.87-182.4-10.65-5.19-40.11-19.53-20.22-66.48-33.87-1.86,.45-8.4,39.3-2.1,21.78,68.79,50.52,23.88,47.04-116.52-2.13-9.12-215.46-130.56-10.53,.69-47.04,108.09,32.31,16.14,2.76,8.49-10.47,3.42-35.55-15.6-23.85,50.55-9.84-7.74,81.15-183.18-33.69-23.04,6.18-15.15,189.78,111.18,2.82-6.72-31.44-19.11,12.33-151.05-46.59-69.63-14.04-38.16,38.73-70.77,52.23,26.4,24.72-4.5,1.11-39.87-10.11-28.08-43.23-24.12-59.52,106.68-9-5.07,103.41-210.39-273.75-117.21-18.03-10.05-135.69-75.57-98.25-32.28-95.46,183.87,2.82,25.29-8.43,14.04-21.06,6.3-50.19,102.12,219.69,127.05,75.12,2.82,87.72,80.01,30.18,69.48,44.91,28.08-4.2,11.22-83.52-45.63-47.04-51.93-65.97-54.75-161.43-92.64-74.4,139.68,71.58,34.38,38.61-4.2,101.07-2.1,10.53-5.64,33.69,4.92,30.9,11.94,13.32,32.28-2.1,131.97,18.96,91.23,26.67,124.95-4.92,51.93-100.56,198.24,9.06,4.32,95.97,45.66,37.05-6.72-1.68,22.44-22.47-1.11-15.57,8.22-98.64-58.26-22.26-10.08,105.93-202.08-6.72-.72,.9-8.19h10.68l-1.14-53.88-46.59-202.71,3.93-128.58-10.11-23.61-19.08-14.04-35.4-2.79-9.54,1.68-20.76,2.82-.6,3.48-7.29-1.26-4.98-2.55-61.2,2.82-45.48,5.07-23.58-7.32-52.77,110.61,11.22,9.57-8.97,14.04-25.29-10.68-69.06,145.98-3.93,32.01,307.71,152.19,24.72-39.87,11.79,5.04-31.47,53.34-17.4-3.36-57.3,125.97-14.88-6.75,56.46-123.87-286.05-146.25-18.33,71.85,4.68,54.63,220.29,112.14-3.96,12.93-112.77-58.35-5.55,8.43-12.06-6.03,5.64-8.61-104.97-54.3-2.22-59.52,13.47-57.84,2.79-45.48,78.63-172.95-30.9-16.83-162.84,315.06-14.37-7.2,189.69-371.7-100.89-53.52-202.92,366.6-17.61-9.15,37.26-77.58-12.36-6.75-39.21,76.92-135.18-70.14,39.18-79.56,30.21,11.49,7.89-11.13,8.28,3.6-10.8,21.21-31.98-7.92-22.26,56.07,105.99,54.63,32.34-61.11-12.93-10.77,1.8-12.21,34.5,17.61,74.28-126.69-183.21-86.31-103.38,215.49-18.27-9.48,105.51-212.34-78.6-29.49-20.37,41.43-14.01-5.61,19.65-41.43-73.02-33.69-97.56,167.76,1.41,18.24,76.5,37.2-9.42,11.61-113.49-56.76,72.63-116.64-287.79-149.16-40.89,138.18-32.61-16.2,39.81-136.35-198.24-105.03-18.84,9.63-38.79,128.94-16.35-6.87,38.4-134.64-11.49-20.79-217.17-108.33-20.25,50.88,128.01,50.34,5.49,13.11-16.98,54.72-13.65-4.92,16.41-47.07-115.44-46.5-16.41,2.19-42.66,98.49,4.26,31.68-33.51-30.09-15.21-.84,37.71-71.76,48.69-100.68,47.58-154.26-95.19-31.74-10.95,3.84-30.63,68.79-8.04-3.57,32.4-80.1,21.42-1.32,100.68,36.33,1.74-6.57-108.96-38.52-21.9-.42-32.82-10.08-.87-14.43-40.26-14.46-31.95,60.42-12.69,1.74-24.96-11.37-.87-14.46,30.63-58.2-10.92-3.51,2.61-6.99,88.83,36.33,69.84-191.01,42.69-181.62-103.41-7.68-170.13-4.38-54.72,152.1-12.57-1.65,53.07-149.34-65.64-5.46-72.78,178.89-48.69,9.84-1.08-9.3,33.9-6.03,73.32-172.32-17.52-6.57-12.57,1.11-41.58-3.3-79.86,144.42-7.68-2.19,57.45-114.87-3.27-15.33-322.23-4.92-83.16-32.28-18.6,7.68-1.08,132.39,17.67,71.76,24.51,4.8,29.76,11.4,58.65-97.17,11.37,3.51-12.24,31.95,73.08,37.2,5.25,19.68-117.03,208.98-2.49-2.43-2.22-17.4,59.49-108.84-52.53-25.38-11.82-17.07-31.95-23.64-13.56,5.28,24.09,106.77,33.69,13.14-3.93,8.31-28.59-.78-29.55,4.92-32.13,6.54-103.95-52.65,3.48-15.27,12.69-1.74,76.17,50.31,10.5-2.19-7.02-51.18,7.89-9.63-14.43-8.34-2.19-67.38-5.25-12.27,10.5-13.11-13.56-16.2-13.53,1.5-.87-7.95,17.94-10.23-12.81-29.94,8.55-142.74-10.26-10.26-.87-18.81-141.03-83.76-170.16,231.51-14.28-14.79,89.58-135.93-81.36-62.91,4.11-10.92,95.04,59.49,10.95-17.1-94.38-61.56,6.15-8.88,99.15,60.18,41.04-60.87-175.05-151.8-60.78-28.32h72.03l83.01,57.15,94.89,98.28,147.87,87.21,17.94-4.29-27.33-69.24-36.78-135.9L7356.32,.35h65.67l69.51,217.02,20.52,3.42,17.79,25.98-15.06,44.46,38.31,17.1,129.93,10.92,41.01-39.66-33.51-52.65-11.61,3.42-25.2-1.11,.39-8.91h17.88l273.09-191.49,8.25-28.5h20.16l-11.76,28.38,11.19,9.09,17.22-37.47h13.29l-20.34,47.28,32.19,26.61L8046.83,.35h37.08l-37.5,89.31,51.48,25.2-70.71,209.04,240.69,8.88,.09-.84,7.23,.81,251.01,12.66,71.79-218.73,60.3-104.76-43.17-21.57h44.43l49.44,35.46-33.72,51.66,162.39,81.84,39.39,78.33,90.15-30.63-126.48-83.58,6.57-10.5,130.83,84.45,71.34-18.81,29.76,116.4,41.16,24.09-4.02,7.8-47.7-24.66-33.36-102.84-117.63,43.77,212.28,102.3-7.68,9.3-225.39-102.3-121.98,52.5,47.04,15.87,15.87,35.55,137.85,51.42-7.11,12.6-138.39-51.99-25.71-35.01-52.53-20.79-15.87,8.76,33.39,12.03-14.25,14.79-37.2-19.71-20.22,12.03,193.11,73.32-1.11,14.76-177.78-64.53-43.77,5.46-23.52-14.22-20.25,10.38,403.89,147.42,9.9,3.63,61.89,22.59,84.06-185.1,8.88,3.42-78.63,188.73,108.03,38.31,88.92-197.64,10.26,4.8-82.08,194.19,108.06,23.25,89.58-180.51,12.3,4.11-25.98,57.42,48.54,21.9-4.77,12.99-47.88-22.56-53.34,118.98,148.41,38.97,116.97-231-114.36-60.18-9.3-31.17,21.33-57.99-130.2-59.64,4.38-8.76,134.04,56.91,35.01-54.15,60.18-35.01,23.25-33.51,80.7-29.43,71.1-23.25,45.84-71.1,10.08-31.92h7.35l-13.56,47.82-41.64,63.39-153,52.17-25.56,35.01-58.62,33.33-31.5,54.27-24.51,57.33,2.19,23.64,112.05,63,73.5-142.23,1.32-14.88,8.31-2.19,235.14-225.15,27.81-45.51h35.58l-29.37,45.69,12.27,2.19,.72,8.1-18.33,1.62-199.02,198.27-15.42,29.4,.69,15.78,61.29,32.91,23.1-19.98,17.52-.33,91.02,51.81,29.07-1.41,30.12-18.78,53.07-85.35-25.86-19.47,5.25-9.45,31.53,17.16,26.94-42.03-23.1-16.11,4.2-10.5,37.47,23.1-101.19,158.61-42.36,21.72-32.91,1.05-87.54-58.14-20.64,20.67-21.36,3.51-72.12-37.11-30.12,27.3-49.98,97.5,34.14,20.13,25.83-50.76,14.88-5.7,11.37-20.55,12.24,3.93-11.79,21-38.1,58.65,82.29,48.15,26.25-49.02,18.84-7.89,47.25,19.71-3.93,10.5-45.96-17.07-25.83,49.89,75.3,50.76,56.01-12.69,49.23,19.02,27.3-62.34,21.36-16.08,6.3,4.89-14.34,17.16-24.51,59.16,91.38,32.58,19.59-54.63,14.37,5.25-17.16,60.21,88.17,39.03,12.6-35.04-4.47-9.78-1.68-30.27h13.44l2.82,27.75,5.31,8.1,14.28,4.77,18.78,.57-.3,15.12-18.21-1.95-16.23-5.34-13.44,29.97,59.1,29.7,96.51-158.64-83.76-47.04-19.02,16.53-28.02,4.2-52.38-34.74-1.95-17.91,53.49-74.79,3.36-21.03,17.37-20.16,52.65,5.34,32.22,26.61-37.53,66.36-7.56,35.85,73.92,49.86,102.24-140.31,26.91-15.42-35.91-124.53,24.27,17.94v.03l21.27,100.11,84.33-41.34,37.95,18.06-96.3,39.45,20.52,78.63,23.25,45.12,32.82,48.57,89.58,101.19,84.33,53.52v25.32l-82.26-52.86-65.64-64.26-88.92-129.24-25.98-99.15-14.37-1.38-17.76,11.61-114.45,156.99-146.19,264.12,143.61,76.08,213.69,100.86,107.7,27.36,26.52,25.65,64.05,13.53v20.01l-64.05-15.6,64.05,320.31v332.25l-28.17-8.19-14.22-22.41-41.58-9.3,4.38,33.36-15.87,1.08-7.11-44.31-64.56-26.79-123.06,318.96,11.4,10.5,3.48,17.07,275.31,131.49Zm-176.37-594.39l-15.45-20.34-14.73-11.25,2.1-28.08-55.44-8.4-6.33,63.87,29.49,21.75-4.92,22.47,63.18,35.1-13.35-47.73,15.45-27.39Zm-120.18,461.76l-7.74-15.27-16.89,2.64-2.73,16.89,15.24,7.8,12.12-12.06Zm-164.61-1606.71l-9.3-17.52-50.88-9.3-13.14,20.79-21.33,38.85-37.2,50.88,48.69,32.28,15.87-2.19,25.17-17.52v-14.76l8.76-22.98,33.36-58.53Zm-114.36,441.87l58.11-109.68-315.84-141.45-80.07,13.14-228.09-128.31-111.87,216.06,3.12,6.3,110.64,2.64,32.58-64.59,11.22,5.07-28.08,60.63,70.74,5.07,173.52,38.73,26.94-49.41,9.57,3.36-26.4,51.42,145.86,30.72,148.05,60.3Zm44.55,569.28l-19.08-47.73-90.42-84.78-44.91,3.93,33.12,23.04,51.12,38.73,44.91,51.66,25.26,15.15Zm-344.94-438.12l80.28-154.98-30.87-14.01-3.36,7.86,7.29,19.08-75.24,141.51,21.9,.54Zm34.26-143.88l-2.25-11.22-61.2-26.4-21.36,69.06-5.64,2.04-2.76-7.65,18.51-64.56-218.97-47.19-26.4-.54,15.15,51.66h4.53v7.59l-37.02,23.37-2.85,5.01-8.28,30.54,9.33,32.73,26.97,26.58,31.26,25.17,53.55,17.94,26.94,1.8,40.62-7.53,34.86-28.77,7.17-28.02,8.31-3.18,33.72,87.69,75.81-156.12Zm-116.64,575.13l107.37-202.83-89.13-52.65-117.21,207.75,98.97,47.73Zm34.62,90.99l49.44-110.04-39.99-21.12-7.2,1.35-48.51,103.32v10.77l38.64,15.27,7.62,.45Zm-39.36-369.57l57.03-106.38-13.17-1.11-208.38,103.08v21.96l-159,288.42,118.47,56.58,194.07-361.47,10.98-1.08Zm37.71-120.78l-26.97-76.95-10.65,14.61-29.22,22.47-43.8,12.33-34.8-4.47-48.84-15.72-12.36-9-53.34,134.22,15.72,17.97,75.81-20.79,168.45-74.67Zm-334.44,333.81l114-205.5-99.96,23.58-76.35,146.55,62.31,35.37Zm54.93-252.96l56.16-146.01-16.86-11.91-28.77-37.92-4.2-47.73,12.63-30.18,30.87-13.32-19.65-56.85-28.77-1.41-117.09,288.87-5.61,.06-.24-22.08-31.44-12.12-83.55,157.23,17.55,8.46,23.16,4.23,206.34-46.35,10.53-10.5-11.22-7.02-9.84-15.45Zm-102.57-123.18l86.88-234.24-39.48-6.15-79.86,225.48,32.46,14.91Zm-29.28,338.52l78.6-143.73-3.93-1.14-73.56,16.29-49.95,101.64,48.84,26.94Zm30.87,128.58l42.69-79.17-129.15-63.45-42.12,55.05-2.25,32.55,130.83,55.02Zm-13.86-438.03l5.82-13.02-30.09-13.02-8.55,17.07,32.82,8.97Zm-75.42,283.08l49.98-101.64-81.96,16.29-45.51-2.82-21.33,77.49-39.87,61.77,87.03,44.34,1.14-33.12,50.52-62.31Zm20.1-314.13l16.65-67.56-11.4-1.77-412.32-135.81-9.63-3.18-25.5-8.4-82.47,499.23,289.53,143.88,75.45-135.12-135.12-39.48v-6.12l2.64-7.02,134.25,40.35,157.92-279Zm-457.32-362.4l9.63-30.66-133.92-52.5-26.7,87.09,143.13,54.27,7.86-58.2Zm-20.13,120.33l5.25-45.06-141.36-56.01-29.31,93.63,164.1,58.65,1.32-51.21Zm-23.13,175.59l12.99-108.06-161.37-58.11-34.2,103.92,5.55,4.83,160.62,62.19,16.41-4.77Zm-23.25,167.52l20.52-144.27-17.1,1.35-166.17-64.95-36.93,115.56,199.68,92.31Zm-27.36,160.2l21.39-143.61-199.17-86.34-35.91,94.89,6.84,28.2,206.85,106.86Zm-12.6-942.93l-37.2-72.3-48.45-25.26-10.5,24.57,12.63,18.96-14.04,8.4-15.45-26.67,9.84-32.97-82.14-38.61-16.83,28.08-15.45-.72-21.06,35.82-65.97,177.57,43.5,12.63,261.12-109.5Zm-60.27,314.04l24.09-84.03-135.24-45.54-28.44,78.78,139.59,50.79Zm-38.07,110.28l30.21-92.79-137.88-52.08-31.95,82.29,1.32,6.57,138.3,56.01Zm-38.19,123.09l29.94-105.15-252.18-98.28-.84,46.14-20.52,66.69,243.6,90.6Zm-8.52,26.85l-2.07-10.95-234.54-86.85-34.89,103.26,237.99,103.95,33.51-109.41Zm-70.08,240.06l29.76-108.54-228.45-108.09-9.63,3.06-31.95,106.8,216.21,110.73,24.06-3.96Zm-38.49-455.82l62.4-184.62-124.8-44.46-36.75,136.77-5.13,47.88,104.28,44.43Zm41.64,483.93l1.77-9.9-8.85-4.71-7.26,6.93,4.38,9.06,9.96-1.38Zm-188.55-506.55l53.46-214.17-123.09-8.76-41.01,164.67-76.47,218.82,150.96,47.25,17.31-64.95-60.21-20.31,3.15-11.22,59.49,20.64,15.72-64.29,.69-67.68Zm-445.5-274.23l67.2-200.25-40.59-17.16-66.54,161.76,3.15,9.45,21.36,8.04,9.12,25.2-1.77,11.91,8.07,1.05Zm-66.87-95.76l54.69-136.23-58.53-46.5-124.71,90.81,38.82,54.72,32.28-16.41,4.38,8.76-30.09,19.14,35.01,47.04,48.15-21.33Zm27.66,93.3l2.1-10.83-16.11-3.87-2.46,10.17,16.47,4.53Zm-24.51-70.71l-2.1-10.14-19.26,13.65,14.7,13.29,6.66-16.8Zm-29.07,67.92l14.34-36.75-17.49-17.16-58.11,38.52-19.98,26.25,48.69,3.84,32.55-14.7Zm-30.81-55.68l-36.78-52.14-25.89,15.75,31.17,53.22,31.5-16.83Zm-38.73,20.7l-37.74-45.42-56.91,36.66-57.99,49.23,129.12-2.73,23.52-37.74Zm-6.3-88.35l-37.2-49.8-31.17,19.71,40.47,49.77,27.9-19.68Zm-39.93,27.9l-39.39-48.69-68.94,47.58,39.39,51.99,68.94-50.88Zm-143.28,319.32l-5.25-7.89-63.9-31.5-35.46,60.84,17.94,31.95,50.34,18.81,36.33-72.21Zm-149.97,141.33l-15.87-109.41-25.71,1.65,21.9,109.41,19.68-1.65Z"/><polygon class="cls-3" points="10800.35 1963.67 10800.35 1974.92 10766.27 1961.03 10746.05 1926.86 10753.4 1922.51 10772.66 1950.89 10800.35 1963.67"/><polygon class="cls-3" points="10800.35 1888.13 10800.35 1901.51 10753.4 1922.51 10746.05 1926.86 10745.27 1925.57 10662.98 1892.75 10659.05 1875.26 10670.42 1874.36 10672.61 1886.18 10747.01 1912.46 10800.35 1888.13"/><polygon class="cls-3" points="10800.35 1792.76 10800.35 1805.78 10747.01 1824.17 10727.33 1844.96 10719.11 1835.12 10738.82 1814.87 10800.35 1792.76"/><polygon class="cls-3" points="10800.35 490.85 10800.35 510.92 10775.45 534.89 10750.28 573.74 10769.42 607.64 10756.85 613.67 10737.68 583.04 10739.87 561.14 10757.39 533.81 10800.35 490.85"/><path class="cls-3" d="M10399.82,174.5l-6.81-6.45-108.36-102.45-10.62-10.05-58.41-55.2h61.41l39.57,37.05,4.56,4.26,31.5,29.49,63.21,58.8,7.02,6.51,39.3,36.54v.03l26.49,24.6v.03l16.74,15.54,9.69,9.03,25.2,23.43,43.2,21.9,24.63,10.38,26.25-6,42.84,16.11,8.04,3.03,21.15,32.49,1.29,1.98,23.52,35.01,69.12,60.15v42.57l-79.65-65.88-71.1-55.8-3.45-1.65-37.95-18.06-73.5-35.01-32.1-23.76v-.03l-24.27-17.94v-.03l-17.49-12.93-61.02-57.69Zm275.97,153.24l2.91-9.63-41.91-22.86-4.26,12.57,43.26,19.92Z"/><path class="cls-3" d="M10800.35,153.08v64.77l-12.66,13.41-27.9,28.47-37.59,38.97-15.78,24.87-21.15-32.49-8.04-3.03,19.65-9.63,47.88-44.46-108.75-54,15.06-40.35,34.86,5.46,32.16-58.11,12.3,2.04-43.77,100.53,70.44,34.2,43.29-70.65Zm-129.24,24.45l6.15-17.07-12.03-3.09-6.15,14.01,12.03,6.15Z"/><polygon class="cls-3" points="10800.35 .35 10800.35 27.41 10763.72 .35 10800.35 .35"/><polygon class="cls-4" points="9869.36 1891.82 9925.79 1920.11 9985.28 1947.05 10014.59 1960.31 10029.47 1967.06 10111.25 2004.08 10133.51 2014.16 10232.15 2072.42 10260.86 2089.37 10302.47 2121.26 10366.85 2170.61 10389.08 2187.68 10395.8 2194.7 10418.96 2218.88 10483.97 2286.83 10532.45 2356.52 10555.1 2389.1 10587.38 2435.54 10648.31 2510.36 10748.09 2594.18 10679.63 2594.18 10611.44 2534.54 10572.95 2494.37 10531.04 2430.71 10508.06 2395.82 10502.03 2386.67 10423.52 2290.82 10411.64 2276.33 10403.03 2265.8 10378.49 2238.8 10367.81 2227.07 10361.99 2220.68 10264.91 2144.78 10188.8 2102.18 10170.8 2092.1 10098.74 2051.78 9985.91 1994.33 9910.67 1946.45 9852.41 1917.77 9840.2 1911.77 9686.24 1835.96 9642.65 1812.92 9656.9 1785.32 9857.3 1885.79 9869.36 1891.82"/><polygon class="cls-5" points="10693.13 1354.7 10718.42 1388.39 10703.66 1413.68 10684.73 1422.8 10677.71 1427.96 10658.06 1442.45 10620.86 1469.81 10610.06 1457.33 10607.51 1454.39 10595.57 1449.47 10597.67 1436.12 10599.08 1396.13 10585.76 1368.05 10567.49 1334.36 10570.31 1292.93 10561.19 1259.24 10571.78 1237.82 10607.75 1227.29 10604.24 1173.77 10660.16 1198.88 10662.95 1223.45 10669.28 1245.2 10668.29 1250.03 10661.78 1248.71 10647.74 1243.79 10626.71 1288.01 10661.09 1346.96 10687.91 1346.57 10693.13 1354.7"/><polygon class="cls-2" points="10566.56 2035.67 10717.55 2106.95 10646.96 2246.15 10597.85 2238.41 10581.68 2241.23 10566.35 2260.82 10478.6 2211.62 10566.56 2035.67"/><polygon class="cls-5" points="10695.02 1466.78 10698.62 1522.49 10676.15 1531.01 10641.56 1553.48 10629.47 1541.03 10636.52 1522.43 10622.48 1500.68 10691.27 1438.22 10692.77 1454.21 10695.02 1466.78"/><polygon class="cls-5" points="10679.69 1333.76 10669.52 1333.61 10647.74 1295.03 10661.78 1248.71 10668.29 1250.03 10662.26 1279.61 10674.2 1325.24 10679.69 1333.76"/><polygon class="cls-3" points="10580.54 118.79 10515.11 222.23 10505.42 213.2 10568.51 113.3 10580.54 118.79"/><polygon class="cls-5" points="10569.02 1019.81 10465.61 1230.2 10474.61 1235.27 10433.99 1281.14 10425.2 1279.37 10338.35 1443.44 10324.4 1434.98 10328.6 1423.76 10283.69 1395.68 10253.51 1326.2 10165.79 1246.19 10090.67 1243.37 10277.24 892.55 10295.27 902.6 10569.02 1019.81"/><polygon class="cls-2" points="10556.87 1766.78 10494.56 1935.23 10466.48 1939.64 10443.44 1975.73 10440.17 1980.86 10448.93 2015.09 10421.75 2092.28 10357.79 2138.09 10302.47 2121.26 10260.86 2089.37 10232.15 2072.42 10247.72 2064.2 10270.19 2065.31 10271.87 2042.87 10234.82 2049.59 10138.85 2003.93 10194.5 1909.79 10255.91 1935.23 10321.73 1814.15 10257.68 1786.97 10296.29 1693.1 10332.26 1672.04 10342.79 1655.36 10489.31 1709.75 10489.31 1737.83 10556.87 1766.78"/><polygon class="cls-3" points="10540.01 .35 10540.97 68.48 10480.1 157.37 10488.68 197.63 10462.19 173.03 10462.19 173 10459.61 157.37 10525.25 69.17 10525.76 .35 10540.01 .35"/><polygon class="cls-2" points="10536.77 2021.63 10483.43 2140.16 10465.88 2145.77 10434.95 2133.62 10481.27 2023.43 10498.79 2021.69 10512.8 2010.32 10536.77 2021.63"/><polygon class="cls-3" points="10531.04 2430.71 10452.53 2594.18 10406.9 2594.18 10467.29 2473.37 10402.31 2477.48 10372.22 2509.64 10351.04 2522.63 10321.64 2519.21 10284.71 2500.04 10250.09 2427.92 10241.6 2405.75 10259.06 2381.75 10294.22 2317.19 10319.93 2254.28 10344.56 2248.28 10360.97 2236.79 10367.81 2227.07 10378.49 2238.8 10356.98 2258.21 10326.65 2263.82 10293.53 2364.32 10262.06 2398.58 10264.31 2427.77 10286.78 2449.1 10304.18 2493.47 10315.97 2503.58 10349.12 2508.62 10386.74 2477.18 10370.99 2468.75 10348.55 2454.17 10352.48 2410.94 10368.77 2330.63 10411.64 2276.33 10423.52 2290.82 10386.02 2334.98 10371.98 2431.85 10390.25 2461.31 10472.36 2463.44 10508.03 2395.82 10508.06 2395.82 10531.04 2430.71"/><polygon class="cls-5" points="10502.03 2386.67 10508.06 2395.82 10508.03 2395.82 10472.36 2463.44 10390.25 2461.31 10371.98 2431.85 10386.02 2334.98 10423.52 2290.82 10502.03 2386.67"/><polygon class="cls-3" points="10465.34 1665.98 10464.89 1674.38 10449.35 1673.54 10433.18 1631.33 10391.39 1631.33 10383.89 1633.76 10381.13 1625.27 10392.35 1619.66 10437.98 1620.38 10454.12 1659.68 10465.34 1665.98"/><polygon class="cls-3" points="10463.06 29.93 10457.3 85.22 10448.9 84.35 10452.05 33.95 10415.72 .35 10429.76 .35 10463.06 29.93"/><polygon class="cls-3" points="10457.3 85.22 10456.07 96.89 10428.59 127.07 10422.89 136.46 10415.87 129.95 10421.57 120.44 10428.92 112.73 10448.9 84.35 10457.3 85.22"/><polygon class="cls-3" points="10399.82 174.5 10323.2 300.74 10318.31 292.67 10393.01 168.05 10399.82 174.5"/><polygon class="cls-3" points="10352.06 .35 10321.16 41.66 10316.6 37.4 10344.5 .35 10352.06 .35"/><polygon class="cls-3" points="10284.65 65.6 10195.64 201.83 10198.79 212.69 10223.99 231.59 10227.14 248.75 10151.87 368.48 10141.37 363.23 10211.75 245.6 10210.1 237.71 10181.39 221.24 10182.08 200.6 10274.03 55.55 10284.65 65.6"/><path class="cls-3" d="M10267.79,2594.18h-31.2l-127.8-87.48-89.64-40.05-15.12,50.97-23.25,42.3,49.14,34.26h-39.27l-21.33-16.89-11.67,16.89h-25.77l42-49.8,22.05-81.21,25.59-64.02,36.09-80.97-104.49-50.34-89.16,175.62-14.22,16.95-33.93-8.19-12.03,49.23-11.49,19.14-15.87,1.11-54.96-23.85-11.22-1.05-8.73,8.07,94.11,89.31h-64.23l-32.43-30.84-22.08,30.84h-33.21l42.87-53.7-28.02-29.76-56.04,83.46h-28.53l73.02-98.16-43.08-34.68-77.37,68.64-78.78,32.19,16.92,32.01h-17.1l-15.84-31.89-25.8-.87-148.38-56.01,2.64,69.57,31.47,19.2h-31.38l-7.11-5.19-4.86,5.19h-21.36l16.59-11.76-.87-81.84-76.59-42-82.89,135.6h-54.27l-104.4-67.77,31.38,67.77h-41.16l-11.67-26.64-34.95,26.64h-33.45l63.57-48.09-19.68-31.05-76.17-66.54-154.05,124.29,1.56,21.39h-62.4l7.38-17.13-58.8-91.62-15.03,4.77-128.07,103.98h-31.8l161.22-117.63,2.73-22.59-65.64-96.42-263.4,199.68,28.14,36.96h-30.81l-82.68-124.47-39.93,124.47h-41.34l-8.61-28.71-45.96-14.22-32.82,15.87-21.24,27.06h-25.26l23.01-36.66-27.36-49.56-23.07-76.92-27.84-145.32,7.86-77.88-99.78,33.24-4.38,8.76,25.38,75.27-15.3,23.64-104.04,66.84,14.76,43.23,70.02-.54,30.09,22.41,53.61,83.7,40.2,29.79h-30.99l-19.05-17.73-46.5-64.56-42.24,82.29h-21l52.86-107.73-27.33-10.26-64.29,1.35-25.98-51.27-62.91,35.55-49.11,132.36h-25.29l53.88-143.97,95.04-47.88-118.98-107.37-157.08,299.22h-73.02l3.06-9.27-93-43.08-26.16,52.35h-24.36l34.11-61.92-115.56-55.38-52.08,117.3h-17.46l48.96-124.17-113.79-57.42-13.14-29.55-195.3,69.48,28.17,141.66h-45.27l-31.59-134.55-209.52,128.01,8.28,6.54h-46.05l-129.45-69.3-18.36,69.3h-22.32l24.27-75.87-85.68-38.85-20.13,11.82-10.08,57.78,25.62,45.12h-22.74l-5.07-18.87-4.92,18.87h-25.86l21.18-113.4-129.57-56.01-54.69,140.91,54.87,28.5h-18.93l-44.82-21.48-9.06,21.48h-55.26l20.01-44.46-44.85-22.44-30.63-9.84-9.3-10.95-115.98-48.69-11.49,7.11-13.68-6.57-12.57-25.14-65.1-23.55-51.42,99.03,66.18-17.52,37.2-1.62,65.1,41.01,2.73,53.07-21.33-3.27,1.11-45.96-67.86-32.82-89.7,24.06-31.74,68.55h-27.18l45.15-89.22-227.58-129.12-144.75,78.45-89.28,37.65,222.03,102.24h-52.53l-87.24-45.78-19.17,45.78h-13.41l23.4-58.47-9.18-2.19-25.26,60.66h-22.65l27.33-66.36-70.47-25.83-28.89,7.02-28.44-5.25-170.25,50.76-4.38-16.62,166.32-47.28-213.12-91.89-80.43,195.45h-59.64l100.74-227.37-150.99-98.49-7.65,9.87,42.66,23.52-6.54,8.76-42.12-18.6-20.25,37.74,40.47,21.33-6,12.03-45.42-19.14-20.25,29.55-125.82-65.67-8.76-11.49,15.87-35.01-51.42-26.79-12.03,41.01-11.49-3.81,12.03-45.42,.54-22.41,20.79-39.96,22.98,3.3,184.92,103.95,4.38-11.49-190.38-105.06-5.49-14.76-147.15-62.37-18.6,10.95-7.11-10.38,21.9-12.6,82.05,28.44,32.28-47.58-74.4-133.5,9.84-4.92,15.87,21.33,174.24-327.39-115.56-55.41-2.07,12.33-8.76,2.01-5.61-24.51-10.02-3.66,6.72-39.09,102.03,47.85,93-168.51,12.57,4.95-91.89,173.94,71.1,36.12,41.04-88.02,13.68,2.58-43.59,91.47,136.74,67.53,214.17-389.46-189.51-99.36,4.38-8.31,195.18,100.23,65.22-96.27-10.08-2.19-42,64.77-22.77,6.99-146.61-69.57,1.74-10.95,145.74,67.38,14.46-9.18,34.47-63.99-107.37-61.56-58.8,14.37-207.9-124.47,.69-23.25,9.57,.69,2.04,16.41,71.82,41.04-2.73-151.14,4.23-104.25-79.47-3.84,.69-12.96,260.16,6.3,31.86,11.22,17.61-16.44-249.75-81.78-37.47-16.8-16.77-7.44-24.54-10.89-11.52-5.1-21.45-9.51-96.69-42.84-2.43-68.25h.03l54.81,25.83,18.6,8.79,6.81,3.12,37.23,17.1,78.93,36.27,153.51,70.53,4.62-5.67-141.81-75.6-23.1-23.82,1.38-103.98,16.77-49.68,7.11,2.4-8.76,47.25,.42,100.23,10.08,11.82,89.28,47.25,14.01-3.48,70.89-107.67-70.02-52.53-31.08-13.56-30.18-46.83,2.73-7.86,17.49,5.46,14.22,28.98,20.4,20.25,15.18,1.11,78.78-106.14-146.61,27.36-8.04,.06-171.54,25.89-2.82-12.24,155.46-23.82,82.29-116.94-34.68-31.5,7.02-5.61,33.27,22.41,181.17-203.67-12.84-12.09h76.38l-73.83,46.02,39.42,41.4,10.08,27.99-9.24,2.52-14.28-31.65-35.58-28.56-98.16,115.38,146.43,118.95,65.19-.42-102.84-102.42,10.95-7.89,106.35,111.18,165,4.38-68.07-153.66L5089.55,.35h38.4l16.14,59.19L5190.23,.35h28.2l-68.64,79.32,21.87,90.6,45.96,95.4L5426.39,.35h22.2l-219.45,281.52,33.72-3.06L5465.15,.35h20.67l-203.28,274.95,298.92-83.13,125.16-7.02-24.93-55.14L5499.92,.35h41.4l144.18,112.92L5624.03,.35h15.9l132.75,261,26.07,59.16,26.01-9.57-36.24-88.89,2.07-3.36,5.94,3.69,39.3,84.24,17.97,1.68,110.61-28.65,11.22-7.29-168.45-58.95,2.58-8.46,154.5,47.19,28.71,15.72,22.56-4.11-67.68-55.38-265.35-172.32-23.67-35.7h18.24l12.96,28.17,162.45,96.36,180.33,130.41,16.62,.45-60.84-181.62L5868.26,.35h24.78l113.61,63.45,59.46,190.26h15.75l9.18-44.22L6101.48,.35h18.3l-3.36,148.23,14.46,4.8,7.86,21.45,91.05,6.57,18.81-48.57,12.69,5.25-14.01,42,21-.45,24.09-11.37,40.26-76.59,12.69,3.96-33.69,66.51,116.4-45.51L6498.62,.35h17.46l-61.8,102.72,156.24-70.92,20.85-31.8h38.79l-104.46,160.56-10.92-6.03,44.31-81.51-198.6,90.27,143.34,103.38-4.38,21.36,43.23,38.28-45.96,95.73-12.6-5.46,39.96-87.54-35.01-30.63-45.42,90.81-37.74,5.46-18.06,38.85,97.92,46.5,77.13-151.53,11.49,7.65-70.56,149.91,97.92,56.34,64.02-269.16,57.42-230.31,1.98-1.17,8.88,14.79-116.79,496.95,147.87,65.82,67.53-153.87,13.68,4.26-68.4,157.29,72.66,30.78,148.65-271.17,.03-.03,16.26,17.4-144.63,262.44,371.76,176.49,144.54,91.92,101.13-153.24,4.2,10.05-90.99,149.64,146.76,94.17,69.45,44.55-35.91-106.35-42.87-70.47-17.61-42.75,60.15-1.35-4.08,31.32,66.75,148.26,28.98,43.77-4.92,17.49,96.9,81.48,35.91-48.12-.45-23.64-27.57-91.05,8.76-4.8,29.76,100.65-.45,17.52-3.51,9.18-32.37,45.96,50.76,43.32,37.65-43.32,5.25,4.8-35.46,42.03,74.85,68.28,90.15-116.85,3.06-26.28,48.84-68.04,12.42,10.02-42.45,54.09-10.92,43.77-83.61,116.4,164.13,132.63,55.59-87.54-10.08-7.44,3.51-10.95,12.69,.45,31.95-73.98,2.58-25.89,48.69,27.33,22.44-3.81,3.69,17.85,152.25,80.1,83.37,43.86,45.45-128.4,14.73,5.4-44.13,127.86,89.73,93.54,44.85-130.74,14.79,6-45.42,136.23,93,81.51,63.84-213,32.61,16.14-74.01,222.57,34.47,36.66,65.64,10.95,55.26-20.79,41.01-71.67,94.8-60.72,43.17,26.19,105.57,38.85,2.04,1.08-2.61,6.75,98.82,53.19,5.04,14.37,23.13-8.4,30.54,16.2-54.93,213.06,31.89,2.7,22.47-102.42-9.45-2.25,.9-13.02,106.47,18.42,21.69-53.4,13.86,7.35-22.53,58.17-66.87-9.69-32.4-4.68-23.79,104.67,33.24,7.17,17.97-96.12,4.02-4.5,61.56,9.45-1.8,9.87-51.21-8.1-20.67,94.8,19.77,16.62,24.27-10.77,20.64,5.37,21.57-84.9,22.47-9.42,9.42-34.59-13.02-9.45,2.58-31.14,9.21,4.89,3.03,20.88,95.22,48.51,12.96-10.65,15.21,8.04-4.59,8.85-29.91,54.63-8.34,64.68,188.04-18.69,48.57-4.89,3.78-5.73,12.21,6-8.67,13.2-23.67,3.21-3.45,23.01,172.95,93.84-5.76,12.36-179.1-97.74,4.59-27.9-6.33-.57-22.41,77.91-29.61,58.35,2.88,14.97,36,18.81,19.41,40.98,67.59,30.93,25.14,.57,15.87-9.3,14.22,1.62-17.49,51.42,74.4,39.96,53.61-130.2-11.49-9.87,7.11-12.03,105.03,40.5,27.57-59.7,18,10.08-107.19,213.51,63.33,33.87-5.61,11.49-66.39-31.92-46.2,116.79,61.62,30.54,59.37,34.71,120.06,83.01Zm-205.89-290.43l60.18-137.01-66.93-29.64-59.28,134.31,66.03,32.34Zm-217.11,141.9l95.43-190.35-20.76-11.22-97.14,191.46,22.47,10.11Zm-26.49-17.76l94.8-189.12-7.5-2.94-40.56-15.93-54.81,103.32-89.4-40.89-21.84,42.87-13.2,25.86,132.51,76.83Zm81.9-212.61l11.4-23.19-30.54,.54-4.41,10.5,23.55,12.15Zm-37.32-19.38l3.69-6.9-71.76-34.71-27.15-43.26-32.19-15.18-5.07-5.52,38.64-84.87-8.52-2.07-95.07,189.69,103.14,52.83,7.59,6.57v-23.01l33.81-58.41,52.89,24.84Zm-38.28,68.43l30.54-60.72-33.42-16.89-29.1,54.6,2.88,7.92,1.08,3.84,28.02,11.25Zm-19.41,35.94l11.16-19.77-206.64-105.3-11.88,19.41,207.36,105.66Zm-16.17,202.65l18.3-60.39-11.49-3.96-17.28,1.92-91.65-45.81-13.47-55.26,36.39-63.33-27.42-16.17-82.2,159,89.61,76.44,5.76-13.29,29.82-1.08,52.83,27.3,10.8-5.37Zm-132.21-312.72l129.36-249.69-74.4,6.3-70.17,181.8,4.89,23.16v11.25l-18.78,12.81,29.1,14.37Zm-27.03-57.42l74.4-181.8-106.71,9.12-147.39-32.28-19.65,7.02-120.03,260.4,105.63,66.9,19.41-38.79-26.61-22.29-.72-7.2,9.36-29.46,11.13,4.68-7.17,27.3,126.48,80.52,6.12-.36,38.46-65.79-17.61-12.21,25.14-45.99,25.17,9.33,8.1-10.17-3.51-18.93Zm-39.9,275.37l80.22-153.54-65.4-32.7-43.14,68.64-16.17,.72-101.7-57.87-16.89,33.06,163.08,141.69Zm4.89-539.85l14.85-35.04-81.78-42.21-10.77,36.39-24.27,14.82-16.17,72.78,112.32,24.24,5.82-70.98Zm-20.88,598.17l12.69-21.87-213.15-175.5-79.2-43.77-55.14,96.27,287.1,188.64,47.7-43.77Zm-76.08,57.33l10.08-7.89-457.35-292.35-145.74,268.29,10.5,13.56,20.7,.78,33.96-49.71,9.09,3.15-32.19,55.32,113.43,72.48,93.09-146.79-53.82-32.4,7.44-11.82,147.03,87.54,178.56,64.77,65.22-24.93Zm-206.28-336l121.02-260.16-26.25-17.52-219.39-43.2-6.9,64.26,8.07,1.74,4.2-28.71,15.06-5.94,44.82,1.38,5.58,8.43-8.04,55.32-11.55-.72,3.51-50.76-37.14-1.41-1.38,17.16,9.45,21-16.8,98.4-14.01-3.15,15.39-96.99-21-1.41-23.1,131.31,49.02,39.9,2.79-11.55,80.88,16.8-.69,13.68-65.49-12.63v5.61l91.95,59.16Zm62.73-513.54l-1.68-6.9-26.46,9.87-13.65-1.8-31.38,19.38-4.2-6.81,25.5-21.54-10.77-14.04-153.09-80.49-17.61-2.16,2.52,30.18,10.77,30.93-6.12,.72-10.41-23.73-6.12-34.86-10.41-.36-106.02,76.92-26.58,18.3-6.12,44.58,26.07,2.49,29.91,8.91-3.18,7.2-31.62-9.48-25.59-1.17-14.94,76.77,62.67-19.26,2.01,6.6-67.83,23.43-1.8,28.41,100.62-20.49,2.16-27.3,30.54-29.13,44.91,2.16,55.71-37.02,33.06,3.6,4.32-21.21,13.65,2.52-10.41,65.4-20.49,15.09-60.03-15.09-56.4-.36-20.85,19.77-3.6,21.57,193.35,43.11,33.78-154.89,12.57,2.88-32.7,155.61,42.75,9.36,53.19-197.67Zm-130.5,635.1l50.34-94.53-90.6-51.21-41.58,89.73,81.84,56.01Zm-21.6-541.41l-.36-25.5-26.22-3.96-35.22,21.57,40.23,14.01,21.57-6.12Zm-76.23,476.91l41.7-94.08-60.72-41.04-227.58,43.77-11.49-53.61h11.49l6.48,37.2,217.92-43.14-6.99-24.66,35.64-206.43-76.59-15.87-14.22,46.5-15.87-1.11,12.03-46.5-83.16,21.36-.57,8.46-5.04,7.32-40.11-27.63-2.79-14.7-134.1,56.7-2.82,11.58,3.51,14.34,14.7,4.2,24.87-18.21,41.31,1.41,33.96,28.71,1.74,66.87-23.79,23.82-32.91,5.94-64.08,1.41-5.61-11.55-9.45-.36,23.82,59.16,4.53,25.92,24.18,21.69,22.05,106.11-11.91,24.51-3.84,7.35-21.72,3.48,3.87,10.86,38.49-9.45,9.81,4.89,1.05,6.3-49.53,14.94,25.83,90.6,7.86,14.88,22.35-17.52,80.52-183.36-21.9-2.19-.42-10.08,80.52-14.88,17.94,2.64,119.04,63.45Zm-114.21,11.37l26.25-44.64-38.07-19.68-56.04,10.95-73.95,189.06-36.84,34.53,24.87,30,34.74,19.95,119.04-220.17Zm-74.43-571.47l-3.24-18.66-24.45,11.85,27.69,6.81Zm-12.75,48.27l-7.02-35.88-107.22-10.95-42-32.37v159.75l-11.82,43.32,7.86,8.31,134.79-56.46,14.46-15.75,10.95-59.97Zm-47.01,261.51l-.9-45.09-21.42-23.64-28.89-1.74-26.7,17.52-24.06,.42,.87,82.29,31.5-1.32,57.33-10.5,12.27-17.94Zm-63.18,244.26l-20.73-97.74-13.44-8.13-15.96,2.25,24.93,125.76,19.32-8.97,5.88-13.17Zm-15.18,200.04l-12.42-25.74-21.03-111.33-8.4-.69-187.65,152.28-1.41,13.32,60.06,97.38,12.9-.57,157.95-124.65Zm-29.37-322.71l-.54-30.81h-5.04l-.84,30.54,6.42,.27Zm-8.25-107.16l-.45-72.63-5.7-10.95-15.75-2.19-26.25,52.95,26.25,37.2,21.9-4.38Zm-5.61,285.09l-25.56-153.33-236.58,189.78-1.44,17.76,60.51,91.11h12.24l190.83-145.32Zm-8.04-407.97l-7.11-10.17-11.85,3.63-.21,12.39,11.7,4.05,7.47-9.9Zm-9.57-217.26l2.1-52.86-80.19-72.48-39.21,91.38,5.61,26.25-13.32,42.36-22.74,14.37-12.6,35.01,63.72,36.75,42-65.13,20.67-50.4-25.56-15.06,4.89-9.09,35.73,22.05,18.9-3.15Zm-2.46,131.28l1.41-113.07-26.61-1.05-5.25,33.24-22.08,30.48-35.34,45.51,78.06,53.58,9.81-48.69Zm-3.72,326.49l-.36-75.27-40.26-54.6-265.05,204.81-2.79,41.31,52.17,78.42,256.29-194.67Zm-29.58-203.4l-3.39-33.9-1.53-15.36-113.1-77.1-91.5-62.4-11.49,26.28-3.84,41.58-23.52,111.6,15.87,19.68,206.25,41.04,26.25-51.42Zm-167.37,175.8l131.31-112.38-193.29-43.08-7.35,86.85-7.68,39.21-51.12,113.79,12.24,.69,115.89-85.08Zm74.85-466.71l39.39-94.08-101.76-100.65-73.86,233.04,97.38,72.75,10.95-27.9,19.68-14.76,13.14-31.2-4.92-37.2Zm-156.03,28.89l80.43-236.88-248.91-127.56-5.7-14.43-14.43,2.16-79.23,147.06,6.99,51.21,132.45,90.6,42.15,28.83,86.25,59.01Zm15.39,62.43l-11.91-21.36-19.95-9.12-10.5,36.42,1.41,22.05-24.18,114.51-11.55-2.1,24.18-112.05-.36-24.51,11.4-43.38-242.76-172.65v270.96l12.87,25.59,8.76,48.66,26.97,14.01,153,35.37,36.06-2.79,16.44-27.66,30.12-151.95Zm-11.82,271.86l.69-50.76-213.57-50.79-4.56,40.26-7.35,6.66,22.77,30.81,7.8,1.71-1.77,7.98,47.79,81.6,68.61,114.84,16.8,1.05,38.16-75.27,16.47-53.58-4.26-2.31,3.99-7.38,8.43-44.82Zm-8.55,349.62l-5.49-18.45-49.23-77.28-36.93-5.46-230.43,170.94-8.22,37.62,66.33,91.62,263.97-198.99Zm-90.42-152.7l-121.05-194.88-19.83,24.6-12.3,129.27,153.18,41.01Zm-6.9,42.99l1.11-19.05-152.64-45.66-66.12,216.24,217.65-151.53Zm-144.15-315.84l-2.52-22.77-6.81-8.25h-17.58l-9.84,5.22-2.52,27.06,10.59,7.17,20.25-1.44,8.43-6.99Zm-46.83,264.72l25.38-174.63-15.78-7.02-44.64,5.25-117.72,209.22-.42,11.37,3.36,4.08,121.8,36.63,28.02-84.9Zm16.77-188.61l-14.94-39-17.07-9.99-14.43,7.8,5.34,15.24-6.81,28.2,47.91-2.25Zm-30.42-291.21l-11.64-155.94-8.19-6.84-58.83,246.87,20.52,1.38,57.45,43.08,.69-128.55Zm-16.56,178.35l16.53-23.52-63.3-51.84-20.19-.84-12.87,73.41-14.28,86.82,16.8,6.72,77.88-53.49-.57-37.26Zm-4.83,88.5l-4.77-9.51-57.69,42.27,8.4,13.74,27.72,12.03,13.44-28.29,12.9-30.24Zm-1.2-454.92l-16.41-46.5-74.52-62.91-8.22,4.8-105.36,366.9,75.63-8.4,55.68,8.76,73.2-262.65Zm-85.35,1055.73l84.48-286.71-115.53-36.06-6.09,52.32,24,184.68,13.14,85.77Zm-48.09-363.48l94.98-167.64-48.6-17.49-49.89,41.13-139.59,34.59,17.49,89.7,127.35,38.07-1.74-18.36Zm45.96-347.07l14.88-59.52-61.29-11.82-75.27,10.95-67.59,257.43,5.46,7.35,80.07-17.52,91.92-63.45,9.18-108.54-72.63-9.63,.87-14.43,74.4,9.18Zm-22.68,675.99l-32.82-239.07,4.92-57.99-117.09-35.55-12.03,65.1-2.19,15.84,40.5,197.49,40.47,62.91,34.47-18.03,43.77,9.3Zm-82.92-862.95l79.86-279.57-34.47-22.41-118.14,246.18,72.75,55.8Zm-87.27-62.61l118.17-252.75-66.21-52.5-161.37,18.6,2.52,31.08-7.98,.63-5.49-32.28-201.87,21.9-55.8,75.48,9,10.23,78,29.7,22.98-37.74,9.84,4.38-25.17,44.85,31.74,16.44,34.47,44.31,10.92-21.36,9.87,5.49-16.98,32.82,62.37,100.65,18.6-36.66,8.76,7.11-18.6,43.77,80.97,89.73,48.69-134.04-56.37-41.58,7.68-10.92,61.26,42.66Zm60.87,160.26l22.98-78.78-80.97-55.26-49.23,124.74v8.73l36.66,13.68,63.45-7.65,7.11-5.46Zm-56.94,224.46l46.5-197.49-53.07,1.62-65.1-17.49-37.77-42.12-55.23-79.32-12.03,24.06-8.76-7.65,6.57-35.58-40.5-62.91-21.87,45.96-15.87-9.3,28.98-56.34-44.85-59.64-25.71-16.41-17.52,52.53-12.03-3.3,21.9-57.42-92.46-32.28-134.04,156.99,7.86-42.78-35.01-26.82,8.22-9.3,41.04,29.01,59.61-83.16-57.99-46.5-78.21,24.06-54.18,78.24,8.22,5.46-7.11,9.3-46.5-25.71-41.04,62.91-14.22,2.73-112.14-49.77-77.13,18.06-34.5,111.03,192.24,77.85,24.21-51.27-3.6-11.31-54.15-32.61,8.61-10.23,61.32,34.95,.18,12.93,45.54,38.88,158.73-115.95-148.2,124.32,141.09,118.59,132.39-153.72,18.6-6.03,388.98,312.93Zm-129-691.71l170.1-20.49-194.04-148.74-12.81,3.42-134.19,183.78,170.94-17.97Zm129.93,885.24l-20.79-85.89-207.36,40.5-169.59,55.23,211.74,190.38,80.4-52.5,2.73-16.41-22.41-78.24,13.68-20.25,111.6-32.82Zm-18.24-122.37l9.63-52.95-373.32-306.78-13.14,.42-127.8,149.7,295.86,253.83,78.33-17.94,69.6-13.56-288.84-242.91,8.73-9.18,293.22,244.2,47.73-4.83Zm-182.04-965.79l-5.7-10.95-211.83-130.41-155.79,249.9-3.57,6.03-8.04-4.77,158.1-259.86-91.89-53.61-56.34,96.84-15.87-7.11,58.53-101.76-65.1-35.01-46.5,85.89-9.3-4.92,44.85-85.89-61.8-31.74-55.26,108.87-9.3-6.57,51.42-108.87-26.82-10.92-43.74,85.32-11.49-4.38,44.85-86.97-234.69-108.87-99.03,174.51-28.98,79.32,177.78,93.57,56.94-96.81,12.69,5.25-52.53,95.4,165.45,80.52,2.61,24.96-32.37,67.83,189.06,149.67,43.77-45.06,8.73,6.57-39.81,48.99,10.86,9.9,162.06-47.19,48.54-37.62,129.51-190.05Zm-433.44,1153.23l385.95-138.69-490.68-414.72-145.74,289.8,61.83,31.74,32.28-63.99,10.38,3.81-29.55,70.59,33.93,16.41,49.23-124.74,14.79,4.38-51.99,131.85,64.56,39.93,19.71-52.53,10.38,1.65-45.42,121.98-12.99-.54,18.81-63.24-182.07-98.31-94.86,308.58,131.94,10.56,200.34-69.06,84.12-231.81,12.3,2.04-77.25,224.31Zm294.21,30.66l-1.71-10.26-84.63-63.24-155.58,54.69,51.3,24.81,2.55,15.36-94.02,219.69,125.64,55.56,156.45-296.61Zm-96.18-829.02l59.4-76.74-97.2,31.92-2.25,13.74,40.05,31.08Zm-204.45,1062.39l91.65-222.93-51.3-21.87-81.36,21.87-81.39,165.51,122.4,57.42Zm-103.86-1081.41l181.89-56.73-201.03-159.36-33.51,72.51,76.98,55.77,13.65-14.37,6.66,3.84-15.42,19.98,5.25,15.06-34.47,63.3Zm131.76,18.81l-2.01-3.81-89.4,29.34,.66,4.71,50.19,27.12,40.56-57.36Zm-119.67,102.63l41.91-56.04-19.95-8.28-10.08-9.87-98.13,35.43,71.46,43.02,14.79-4.26Zm-50.46,893.64l82.74-145.65-140.88,53.34-61.53-2.73-8.88,10.26,18.45,30.75,110.1,54.03Zm60.24-1081.41l-6.15-10.92-77.28-52.65-28.71,51.27-69.06,62.22-8.22,71.13,131.31-38.97-8.22-18.48,26.67,11.64,39.66-75.24Zm-23.97-238.02l-1.74-12.69-170.67-75.72-50.34,88.83-6.57-4.35,47.7-88.41-72.21-37.2-27.57,38.94-17.49,10.5-2.64,10.5-8.76,36.33,3.06,17.07,60.42,27.57,3.48,20.58-28.89,88.41,13.59,8.31,6.57,24.06,153.15,60.39,98.91-213.12Zm-152.34,848.01l116.94-230.85-125.82-51.3-86.7,252.39,95.58,29.76Zm-17.73-565.5l53.61-61.26-154.26-61.29-3.3-27.33-263.67-73.86-102.84,88.62,227.01,49.77-4.38,13.68-236.31-51.96-45.96,49.23,1.08,20.79,19.17,34.47,39.39,4.92,291.03,78.24,25.71-114.9,7.65,.54-22.44,123.66,22.44,7.11,15.87-74.97,8.76,.57-9.87,77.13,54.72,13.11,15.87-85.86,9.3,1.08-14.79,87.54,51.99-16.98,14.22-82.05Zm-80.13,901.47l88.05-321.39-120.54-32.49-28.2,3.42-139.32,93.18,18.81,82.89,25.62,147.03,94.89,17.1,37.62-124.8,16.23,.84-37.59,126.51,44.43,7.71Zm-123.15,113.79l194.88-73.17-216.78-30.78,21.9,103.95Zm108.78-480.9l82.05-258.51-62.91-23.25-86.16,288.57,.33,7.53,37.26-19.83,29.43,5.49Zm26.1-293.52l29.76-98.04-83.25,28.74-79.74,31.98,133.23,37.32Zm-85.89-806.1l96.66-174.72-67.23-30.54-37.8,58.26-8.55-4.59,36.78-59.07-38.07-18.81-56.04,117.27,10.53,14.88,33.69,7.02-.36,9.78-28.05-5.46-22.56,73.17-21.87,4.77-11.64-6.15-9.57-11.61-2.73-22.59,97.8-186-101.64-49.35-138.69,257.73-48.9,184.95,85.89,38.31,114,31.74,34.11-26.04,84.24-202.95Zm38.85,394.02l26.28-91.89-64.02-32.28-32.28,2.19-36.09,19.68-10.41,16.98,95.73,33.9,10.41,14.79-8.22,32.25,18.6,4.38Zm-47.22,302.16l68.37-25.71-161.91-41.58-29.55,135.69,123.09-68.4Zm42.12,238.56l25.65-119.67-130.77-32.49-143.61,90.6,96.06,311.64,35.01-128.01,11.49,1.62-28.47,108.33,78.24-43.11,42.75-180.36-155.58-39.33,5.97-14.52,163.26,45.3Zm-5.85-744.36l27.9-47.61-75.48-42.66-16.95,55.23,64.53,35.04Zm-19.14,193.8l5.49-26.79-173.43-62.91-38.85,34.44,206.79,55.26Zm-10.38-158.1l10.2-29.28-53.88-29.04-27.33,50.43-75.24,62.4,55.98,26.46,15.87-19.71,41.58-23.52,36.66-.54-3.84-37.2Zm-111.24,1374.39l-32.46-142.74-122.25-11.13-83.76,260.7,34.2,19.68,204.27-126.51Zm-36.66-830.97l30.09-144.96-181.62-52.53-47.61-5.46,44.34,72.75,76.02,184.35,78.78-54.15Zm21.3,662.85l-76.8-403.56-19.23,27.78-98.37,345.12-1.17,19.02,195.57,11.64Zm-265.8-956.55l260.73-231.84-105.78-32.07-81.21-35.25-73.74,299.16Zm109.38-519.09l135.9-245.34-172.65-93.15-130.8,244.47-11.97-8.55,125.67-241.92-39.33-22.23-41.04,73.53h-21.36l-23.94,38.46-11.97-3.42,23.1-48.72,20.52-1.71,35.04-67.53-273.54-111.12-8.55,21.36,5.13,54.72,103.44,31.62-6,11.97-102.57-31.62-9.39,128.22,151.29,52.98-6.84,11.97-146.52-56.07-17.76,132.66,134.7,45.81-2.94,6.72-126.3-40.05-5.31,3.24-8.55,23.94,16.26,35.91,134.19,39.3,244.47,136.77,37.62-122.22Zm56.16,1053.78l-26.67-72.48-49.26,22.56-8.19,23.94-93.69,108.03-38.28,22.56-27.36,27.36-51.3,249.6,84.54,23.88,97.11,4.77,113.1-410.22Zm-26.25-1571.61l7.2-12.57-141.96-103.77-98.82,44.46,29.19,24.27-8.97,7.65-29.67-21.57-54.78,33.24-122.64,36.39,6.57,6.24,308.76,124.92,19.77-45.36,35.49-6.75,38.19-86.25,11.67-.9Zm-222.9,1643.16l205.71-217.08-11.82-5.25-1.92-7.59,2.07-.51-132.27-290.67-13.14,33.36-71.34,286.41,59.67,23.1-1.86,6.39-59.16-17.22-64.77,173.73,63,21.03,25.83-5.7Zm109.2,620.37l79.5-254.94-158.13-13.68-84.63-19.68-41.04,162.42,6.84,28.2,197.46,97.68Zm-37.17-1256.07l76.92-354.75-265.83-137.61-92.31-26.49,95.73,178.65,199.17,75.21-4.26,16.23-181.23-69.24,171.81,318Zm-32.67,108.36l-19.26-24.93-280.98-104.16,4.38-15.33,274.86,107.67-70.02-138.3-148.8-43.32,3.48-14.88,138.3,45.51-77.01-144.87-191.7-74.85-37.65,83.61,87.09,35.01-4.8,14.88-83.58-35.46-4.83,7.44,51.66,52.08,3.06,21-35.01,109.86-11.82-8.31,35.01-103.29-5.25-14.88-53.4-39.81-29.31,91.02-18.39,40.71-27.57,171.12,19.26,48.57,249,106.8,34.59-129.57,12.24-.42-31.95,141.78,59.1,49.02,89.7,34.14,69.6-267.84Zm-116.7,810.3l52.5-252.75-14.76-4.35-17.52,48.12-24.6,30.63-13.14,39.96-47.04,25.71-32.82,.54,39.93,71.67v24.06l57.45,16.41Zm-59.25-234l100.47-287.28-36.75-11.1-101.73,214.53-86.7,62.52,30.09,58.53,23.52,7.11,71.1-44.31Zm71.61,17.25l16.83-48.69-52.53-11.19-26.25,58.47-66.87,54.63,7.35,40.59,11.88-3.15,31.53,3.15,39.57-27.66,16.8-40.95,21.69-25.2Zm-32.4-1765.95l47.16-29.67-117.24-11.22-26.04,8.52-6.3,63.36,102.42-30.99Zm-34.14,2191.68l53.07-195.84-62.91-15.87-66.18,177.81,76.02,33.9Zm-59.31-531.96l106.83-217.11-70.08-35.04-3.42,35.04-36.75,16.23,18.81,19.68-.87,62.4-20.94,30.54-24.96,16.2-12.69,37.2-13.11,13.56-20.13,1.32-30.21,20.13,30.57,51.99,76.95-52.14Zm69.12-865.89l-138.48-244.44-17.94,9.39-6.84,76.08-13.68,41.01,59.85,22.23-2.31,7.11-59.52-19.59-20.7,58.62,192.54,78.21,7.08-28.62Zm-20.34,1166.88l-3.15-11.19-23.46-41.67,8.4,54.96,18.21-2.1Zm-35.01,94.89l34.32-83.31-16.47,.69-22.38,82.98,4.53-.36Zm7.38-620.7l4.8-37.62-31.92-27.57-235.02-102.87,87.51,293.16,39.39,88.05,19.71-10.5,3.93-15.78,7.89-3.48,15.75,6.12,11.37-8.31,7.89-36.33,38.94-24.51,11.82-28.89v-38.52l-29.34-24.93,1.77-7.89,45.51-20.13Zm-11.04-1490.16l3.15-12.6-16.11-1.77,2.46,13.65,10.5,.72Zm-37.44,2212.68l23.25-65.55-6.45-3.09-23.25,64.44,6.45,4.2Zm18.48-193.8l-10.17-39.21-78.42,58.11-18.9-4.89-119.04-60.93-14.37-1.05-14.7,11.19-1.41,14.73,10.17,23.79-8.04,3.87-12.27-23.46-1.74-22.41,16.44-16.11,25.2-4.2,31.53,17.16,4.89-17.88,46.14-59.88-53.34-88.23-174.36,220.2,19.14,23.25,269.55,118.59,12.63-6.99,51.81-58.11,19.26-87.54Zm-19.53-66.3l-37.2-75.69-16.62-1.32-70.47-115.11-43.77,38.97,44.64,74.82,7.89,23.64-2.64,26.7-43.32,42,3.51,16.65,59.07,27.99,32.82,11.4,9.63-3.51,56.46-66.54Zm-7.05-1831.71l-8.25-14.67-16.5,3.3-1.95,16.71,15.27,7.05,11.43-12.39Zm-17.73,251.64l12.87-204.18-48.15-21.9-20.88,6.21-2.1-7.05-2.82-10.11-129.15,30.9,2.82,11.22,1.59,7.38-6.45,1.38-10.41-10.92-28.44,4.38,192.84,365.7,34.2-158.64-73.86-8.91-8.91-2.04-36.24-37.62,8.22-4.77,32.13,33.51,82.74,5.46Zm-18.51,1482l-57.33-108.54-10.92,5.67,63,105.93,5.25-3.06Zm-31.86-1245.21l-122.94-273.09-75.9-149.52-60.93,16.47-130.59,57.78-28.35,28.35,159.66,125.34,4.53,20.31-67.56,96.27,5.61,14.37,197.97,106.74,103.98,45.18,8.07-19.26,6.45-68.94Zm-75.33,1749.66l60.57-137.61-41.34-18.54-65.19,130.86,1.17,4.17,44.79,21.12Zm53.25-1629.96l5.7-19.26-116.85-48.6-196.95-111.6-85.35,125.19,1.32,11.82,87.09,63.87,5.7,18.84-65.22,101.97,28.02,42,1.74-27.99,89.73-126.06,15.75-1.74,26.25,15.3,1.32,13.14-108.99,166.32,34.71,74.04,50.34-89.16-28.98-17.49,4.35-6.03,33.39,14.76,70.56-130.74,6.57,3.63-69.75,128.85,64.98,37.26,44.82,18.21,95.37-241.23-100.23-43.77,3.96-8.73,100.65,37.2Zm-24.96,986.73l-29.4-62.22-82.74-1.35-88.92-49.26-69.75,103.95-1.35,43.08-116.25,198.3,82.05,41.88,19.83,10.11,39.66-6.15,59.19-69.72,106.29-125.19,.69-10.92,80.7-72.51Zm-77.4,588.54l55.59-106.35-21.45-1.32-153.63-76.59-4.8-17.52-52.53-22.74-72.63,138.3,61.71,25.8,14.43-7.44,17.94,.45,9.63,12.69,1.74,23.19,105.93,41.58,8.31-15.3,20.13-1.77,9.63,7.02Zm45.18-667.56l-49.02-144-1.77-20.13-8.73-20.58-35.46-106.35-43.77,63.48-9.63,28.86-7.44-4.35,10.08-42.45,43.77-63.48-9.63-41.58-22.32-.42-5.25,18.81-109.44,152.31-31.05-3.96-29.34,49.92,235.47,134.79,73.53-.87Zm-48.18,685.47l-2.52-8.67-11.22-1.95-8.1,4.47,2.22,10.65,5.88,6.72,8.97-1.95,4.77-9.27Zm-5.28-1294.89l4.35-34.47-31.71-10.38-76.59,149.88,57.45,94.11,24.6-159.21,21.9-39.93Zm-110.52,92.46l72.75-141.69-62.91-32.82-57.99,88.62,48.15,85.89Zm45.45,155.94l-19.98-39.21-35.01-59.88-17.49-36.75-10.17-6.33-14.7,30.81,41.31,25.56,34.32,57.42,6.66,28.38h15.06Zm-23.46-1133.28l-66.18-115.44-38.85,1.11-91.35,128.01-10.41-5.49,84.81-121.98-60.18,1.08-21.33,4.38,2.19,12.6-79.32,100.65,1.08,22.44-9.84,1.62-2.19-28.44,77.67-107.22-178.32,47.58-101.22,150.99,44.85,86.46,75.51-49.8,7.11,6.57-79.89,57.45,49.26,79.86,24.06-10.95,142.77-159.18,62.37-42.69,167.4-59.61Zm-4.77,1126.02l-36.18-63.66-10.32-.15-23.67,35.01,1.41,10.14,64.86,42.21,3.63-1.41,.27-22.14Zm-107.7,172.74l97.98-133.38-69.45-55.14-2.25-17.7,28.17-44.43-26.43-16.44-65.1,84.24-222.63-152.07,48.12-85.35-55.8-39.93-81.12,110.97-40.98,61.62,131.64,91.05,4.92,16.44-56.37,83.34-2.46,9.45,155.1,105.03,19.71,9.24,66.06,31.02,14.85-29.67,3.72-7.44-58.59-39.63-25.23-20.43-3.06-9.54,16.53-24.63,122.67,73.38Zm-3.03-503.85l97.17-160.62-16.2-9.21-9.21,4.83-77.46,108.96-9.18,33.27,14.88,22.77Zm6.9,765.96l71.13-106.65-53.61-24.09-129.66,206.25-8.76-6.57,123.09-213.9-61.26-36.09-188.19,348.45,127.47,71.13,119.79-211.71v-26.82Zm58.74-1274.16l-3.9-9.81-154.62-114.84-5.61,5.61,141.18,105.6-45.12,76.2-.27,13.44,10.08,11.19,58.26-87.39Zm-12.99,691.11l-25.56-44.82-38.52-9.81-49.38,63.72-8.4-4.89,42.03-66.87-106.44-57.06-87,117.63,180.66,120.45,14.01-2.82,78.6-115.53Zm-1.05,1143.99l-1.38-10.65-10.65-3.09-6.72,7.02,.84,6.72,4.47,6.72,10.38-1.41,3.06-5.31Zm-26.13-1841.4l-1.08-13.68-132.93-83.7-15.87,6.03-115.44,153.18-1.08,15.3,16.95,32.85,121.98-179.46,100.68,69.48-69.48,101.76,56.34,29.01,9.84-16.44-1.08-9.84-15.87-28.98,47.04-75.51Zm-12.33,627.6l-144.78-259.41-92.79,120.09,50.46,36.45,163.59,96.84,23.52,6.03Zm-5.04,1047.39l-.36-15.42h-19.95l-200.61,60.24,14.01,14.34,132.33,72.12,74.58-131.28Zm-7.11-1325.31l-1.74-14.01-90.33-60.93-5.61-21.69,77.04-114.84-55.32-27.66-18.21,19.59-38.16-19.8-56.37-29.22-29.43,41.31,34.59,66.3,53.64,102.81,58.14,42.72,.51,14.01-20.55,29.76,36.15,55.68,55.65-84.03Zm-93.69-236.97l69.48-109.98-78.78-47.58-71.64,114.87,80.94,42.69Zm-54.15,1540.65l122.01-38.85-330.42-189.27-44.88,65.64-9.3-5.46,38.31-73.32-78.24-41.58-68.37,115.44-41.58,103.41,118.17,57.96,17.49-3.27,8.76-37.74,57.45-43.77,95.19,4.38,105.57,59.07,9.84,27.36Zm110.85-626.07l5.28-10.14-82.29-53.91-8.76,12.6,85.77,51.45Zm-116.4,234.75l91.35-169.05-59.07-21.33-59.1-21.87-182.73,327.27,40.62,29.07,98.34-170.34,10.41-2.73,60.18,28.98Zm61.95,585.21l13.17-29.37-154.56-87.54-94.35,35.55,10.65,6.09,206.1,117.69,18.99-42.42Zm5.13-1493.76l1.26-12.57-34.77-29.76-6.12-.54,28.44,53.97,11.19-11.1Zm-145.98,336.21l84.72-120.78-24.84-15.75-25.23,36.39,8.76,16.83-55.68,75.27,12.27,8.04Zm-5.19-209.28l89.58-138.81-149.76-102.57-3.42-28.71,41.04-62.94-30.78-49.92-176.43,201.06,162.54,122.13,52.5-70.47-10.05-36.33,4.95-3.03,15.03,35.58,30.78-14.37,16.41,32.13-67.02,100.53,24.63,15.72Zm78.42-165.84l-87.51-151.89-43.77,55.17,2.19,14.43,129.09,82.29Zm-341.46,1491.27l340.2-152.16-21.36-16.23-94.89-58.98-69.24-5.97-51.27,41.88-7.71,41.01-37.59,4.29-58.14,146.16Zm246.36-365.04l91.47-166.74-52.95-26.7-94.11,164.13,55.59,29.31Zm46.2-861.39l24.06-33.69-50.31-39.84-24.96,42.45,51.21,31.08Zm-84.27,640.95l98.91-175.5-40.26-16.62-54.72,87.09-12.69-3.51,54.72-91.47-50.34-28.89-105.9,196.95,63.45,31.95h46.83Zm50.13-1172.1l43.08-56.01-4.56-3.18-47.61,50.79,9.09,8.4Zm37.8,313.77l-7.83-21-26.61,11.49,13.14,31.08,21.3-21.57Zm-5.1,654.33l1.41-5.04-139.77-87.39-8.97,12.6,147.33,79.83Zm-22.08-626.04l-15.96-31.08-5.31,2.25-22.41,32.76,1.95,17.94,30.81,1.38,10.92-23.25Zm-35.52,60.39l21.3-31.35-26.22,3.36,4.92,27.99Zm.93,79.95l10.71-45.96-17.1-13.89-120.75,156-7.17-6.12,112.95-162.69-196.59-141.06-288.51,409.23,98.31,56.64,158.13,82.26,250.02-334.41Zm-2.25,305.16l-1.41-10.5-12.24-5.61-56.73,90.33,18.21,9.81,52.17-84.03Zm-4.71-389.82l-6.96-22.83-15.9,1.56-2.7,4.92,17.94,16.14,7.62,.21Zm-89.13,478.74l69.66-113.1-26.88-17.37-14.79-9.6-64.41-41.64-101.19,131.64,84,30.57,17.1,6.21,36.51,13.29Zm-10.47,448.2l77.67-141.69-31.71-3.3-10.95,4.92-71.1-31.17-57.99,115.98,94.08,55.26Zm-10.68-1576.77l86.43-128.58-129.66,35.04-1.62,17.49,44.85,76.05Zm-97.14,1521.33l166.17-341.91-66.33-37.62-115.59-43.08-162.06,328.23,53.04,24.78,88.41-159.33,9.18,4.38-88.41,161.07,28.89,17.94,69.6-138.75-2.49-40.71-.15-2.61,19.71-40.68,10.95,3.66-20.52,49.23,4.8,34.2-73.17,140.16,43.77,20.52,134.7-268.05,12.99,4.11-137.43,270.09,23.94,14.37Zm163.02-1262.16l-2.73-15.33-37.74-93.54-68.4,100.65,71.13,54.72,37.74-46.5Zm-45.39-117.63l-27.9-58.53-81.51,122.55,37.2,33.9,72.21-97.92Zm-135.9,334.29l126.39-159.18-80.97-66.75-26.28-2.19-22.95,36.66,50.85,51.42-79.86,118.71,32.82,21.33Zm100.92-407.76l-65.64-132.39-26.82-15.87-73.29-1.62-3.84,47.04-7.65-1.11,1.62-45.39-171.21-.54-10.95,5.46,71.67,61.26,124.71,118.17,74.97,96.3,86.43-131.31Zm-60.84,1798.98l-2.73-11.64-103.26-45.12-78.66,153.18,17.1,10.95,44.46-92.34,10.26,2.76-43.77,95.04-22.38,72.63,1.86,8.07,12.99-2.07,103.95-45.81,60.18-145.65Zm-68.19-197.67l63.72-100.14-109.23-60.21-77.01,140.58,72.21,63.99,28.62,15.66,21.69-59.88Zm57.27-1430.31l3.09-3.66-36.69-32.76-5.04,5.04,38.64,31.38Zm-72.36,210.51l74.4-113.79-61.29-60.72-19.14-13.68-4.38-14.22,30.06-41.01-2.19-20.58-30.63-45.06-30.21-5.25-106.35-63.9-144.84,215.31,122.97,44.22,171.6,118.68Zm32.31-175.23l21-30.24-30.54-28.59-23.79,33.33,33.33,25.5Zm-165.99,1147.11l163.35-327.87-177.51-94.89-30.12,57.78-9.18-4.53,27.36-59.49-90.27-44.46-173.01,330.3,30.72,21.93,89.28-172.89,10.5,4.83-85.77,174.18,244.65,115.11Zm52.26-797.46l69.48-123.09-108.33-79.32-78.78,124.74,117.63,77.67Zm48.93,1167.84l20.25-54.15-41.58-21.36-56.88-51.96-41.58,76.05,119.79,51.42Zm-109.5-1733.31l120.36,61.98-100.35-94.8-20.01,32.82Zm-17.76,1979.28l115.74-230.52-81.51-33.93-67.29,147.15-44.31,13.14-27.9,56.34,105.27,47.82Zm-9.48-303.96l116.52-233.04-148.26-72.21-122.55,233.58,9.3,3.84,74.4-128.01,7.11-1.65,59.1,25.17-5.49,10.95-53.04-25.17-70.05,121.98,132.96,64.56Zm61.65,327.42l23.1-65.13-24.87-17.85-32.91,67.56,34.68,15.42Zm-61.14-1312.05l69.57-116.25-108.54-78.33-65.22,90.15-6.99-3.51,62.31-95.01-90.75-66.39,4.92-6.93,95.04,62.91,77.28-122.4-97.8-58.14-34.17,18.48-18.48-2.07-28.02-5.46-158.67-5.46-7.5,110.76,8.19,10.26v142.92l118.32,63.6,59.49-14.37,121.02,75.24Zm-136.68-468.09l169.8-265.65-25.83-19.68-175.5,249.45-10.92,21,42.45,14.88Zm102.18,1627.89l65.1-142.23-51.42-21.33-42.66,74.94-9.87-3.27,36.12-79.32-131.31-62.37-4.71,7.38,74.22,40.62,6.66,19.26-21.36,46.92-30.12,11.55-89.28-44.1-31.14,50.76,23.79,18.9,2.1,29.07-25.2,40.26,101.19,61.26,35.7-63.72,14.7,4.92-39.9,68.25,38.61,19.41,29.55-62.94,49.23-14.22Zm-116.64-1711.92l149.67-210.51-28.86-24.51-190.38,262.17,35.01,24.06,34.56-51.21Zm-138-249.78l251.85-46.95-130.92-109.74-120.93,156.69Zm148.5,144.75l101.34-140.37-28.47-27.36-49.77,6.57-86.1,113.01,63,48.15Zm-40.29,1583.73l129.24-257.1-151.11-63.6-30.78,58.11-27.36,2.07-41.04-18.48-86.85,168.24,207.9,110.76Zm70.68,68.37l-5.46-14.22-284.49-153.72-102.18,194.85,36.33,19.71,34.14-55.35,21.87-1.11,136.23,66.21,22.44-44.34,12.03-12.57,15.87-1.08,74.94,39.93,25.17-6.03,13.11-32.28Zm-133.14-343.11l23.43-51.12-37.8-14.7-19.26,5.61-14.34,24.84,1.05,21.36,39.21,15.42,7.71-1.41Zm-9.3,445.74l-5.7-14.88-157.56-81.84-14.01,5.7-24.93,37.62,100.65,48.15,78.36,47.7,23.19-42.45Zm-153.54-290.34l97.14-167.73-14.76-3.81-90.27,166.29,7.89,5.25Zm88.23-241.71l-8.22-29.4-58.8-23.25-203.79,400.02,39,71.82,201.03-358.32,30.78-60.87Zm-115.5,646.47l39.78-75.9-112.32-60.51-7.86,.84-35.58,64.41,4.2,12.33,15.69,6.15,30.81-49.29,9.54-1.38,53.22,33.87-25.77,57.99,28.29,11.49Zm-165.57-319.62l198.99-389.07-70.41-36.27-182.58,328.26,54,97.08Zm89.58,112.74l92.43-182.16-13.11-7.11-89.73,182.73,10.41,6.54Zm40.14,189.24l19.89-51.27-38.94-22.98-3.93,.84-26.04,46.8,49.02,26.61Zm-67.23-101.19l11.4-30.21-63.03-31.95-9.63,20.13-.42,19.26,55.56,28.44,6.12-5.67Zm-43.02-118.71l-33.36-49.26-16.41,29.55,49.77,19.71Z"/><polygon class="cls-3" points="10206.32 1749.86 10211.36 1793.09 10210.46 1801.28 10201.37 1800.29 10193.03 1746.5 10198.73 1741.4 10206.32 1749.86"/><polygon class="cls-3" points="10124.33 1658.33 10198.73 1741.4 10193.03 1746.5 10115.39 1670.9 10090.37 1665.74 10080.83 1669.43 10078.28 1662.83 10083.89 1657.79 10124.33 1658.33"/><polygon class="cls-3" points="10109.09 .35 10081.58 32.63 10071.29 27.65 10074.41 21.2 10094.36 .35 10109.09 .35"/><polygon class="cls-3" points="10082.75 1375.46 10047.95 1576.37 10046.84 1665.08 10044.77 1671.71 10037.33 1669.37 10035.92 1585.13 10075.46 1374.2 10082.75 1375.46"/><polygon class="cls-3" points="10078.28 1662.83 10080.83 1669.43 10061.36 1676.93 10044.77 1671.71 10046.84 1665.08 10078.28 1662.83"/><polygon class="cls-3" points="10074.41 21.2 10071.29 27.65 10044.59 14.69 10011.65 55.46 10001.99 56.33 10001.27 48.23 10039.37 .35 10052.63 .35 10074.41 21.2"/><polygon class="cls-5" points="9905.6 2235.83 9828.65 2392.4 9698.99 2325.2 9720.83 2282.33 9810.23 2323.22 9865.04 2219.9 9905.6 2235.83"/><polygon class="cls-3" points="9865.49 835.13 9868.25 842.78 9841.34 852.53 9840.77 855.92 9849.17 877.73 9840.86 880.91 9825.77 848.57 9770.45 804.74 9658.31 782.09 9658.31 774.5 9678.5 774.5 9713.3 777.29 9781.82 793.01 9794.15 800.87 9835.16 842.99 9865.49 835.13"/><path class="cls-4" d="M7124.57,433.76l22.02,22.8,222.24,194.88,103.95,52.65,32.13-6.54,29.55-4.92,22.98,25.71,2.13,16.5,2.22,17.4,2.49,2.43,22.68,22.2,39.54,26.46,13.44,9,77.76,52.05,147.42,75.33,16.65,8.52,215.46,110.1,23.58,14.76,12.93,8.13,24.81,15.54,13.74,8.61,84.27,52.8,21.72,1.2,15.21,.84,33.51,30.09,54.03,6.15,188.04,46.5,19.41,8.19,16.35,6.87,60,25.29,156.06,77.52,32.61,16.2,118.35,58.77,137.7,68.85,113.49,56.76,16.86,8.43,73.05,37.89,18.27,9.48,30.09,15.6,135.18,70.14,14.31,7.41,17.61,9.15,80.25,41.64,33.87,16.98,14.37,7.2-14.25,27.6-15.21-8.04-12.96,10.65-95.22-48.51-3.03-20.88-9.21-4.89-5.22-2.76-13.86-7.35-119.04-63.09-30.54-16.2-23.13,8.4-5.04-14.37-98.82-53.19,2.61-6.75-2.04-1.08-105.57-38.85-43.17-26.19-84.84-51.48-132.33-65.52-32.61-16.14-170.97-84.66-45.69-16.74-14.73-5.4-82.92-30.36-127.44-13.14-55.26-.54-19.14,30.63-22.44,3.81-48.69-27.33-1.65-43.23-121.74-98.31-12.42-10.02-15.42-12.48-404.82-210.6-48.57-8.88-60.15,1.35-28.83-68.79-4.2-10.05-.48-1.17-76.59-44.85-76.59-39.39-101.76-78.78-179.97-173.43-37.41-39.99-16.26-17.4-124.98-133.59-77.58-98.85-11.64-14.85-.06-.06-46.56-75.3-4.41-7.38-8.88-14.79-25.02-41.76h39.87l17.73,25.14,39.75,56.34,32.82,63.6,123.78,153.18,116.19,120.36,14.28,14.79Zm1154.73,803.76l15.3-39.93-25.71-10.95-17.49,35.55,20.79,22.44,7.11-7.11Zm-679.26-400.89l4.38-10.95-45.96-34.47,10.95,28.44,30.63,16.98Zm-63.45-81.51l-12.03-37.2-27.36,8.73,39.39,28.47Z"/><polygon class="cls-3" points="9547.67 1047.65 9543.17 1058.42 9474.44 1030.13 9474.23 1009.52 9479.84 1009.46 9481.64 1021.58 9547.67 1047.65"/><path class="cls-3" d="M9370.19,.35l-8.79,20.82-19.2,100.11-15.87,68.37-22.98,60.72-68.37,57.45-23.52-8.19-56.34,42.12-4.02,.69-17.76,3.09-.12,.03-16.86-8.7,4.02-7.8,11.52-3.54,21.78-6.69,5.19-1.59,53.73-40.71,55.26-47.58,19.14-59.64,14.01-51-17.52-18.36-4.35-21.9,11.79-12.69,19.26,.45,9.63,22.32-13.11,76.14-20.13,60.84-40.71,42.9-21.9,22.32,7.89,4.8,50.76-47.7,9.72-19.44,16.56-33.09,12.69-47.7,21.87-113.34,12.42-33.51h14.31Zm-64.86,92.34l2.79-12.96-9.81-6.3-9.45,6.3,.36,10.14,16.11,2.82Z"/><path class="cls-6" d="M9273.5,106.34l8.76,10.53-7.02,34.2-19.29,45.63-17.55,.87-6.15,13.17-14.91,21.06-41.22,36.84-21.06,37.74-1.38,12.45-21.78,6.69-.54-7.74-16.68-31.59-29.82-65.79,13.17-19.32,4.38-18.42-40.35-10.53-31.59-35.1,13.14-19.29,30.72-10.53,53.52,21.06,41.25,3.51,52.62-21.06,35.1-12.3,16.68,7.92Zm-42.84,63.69l-2.25-9-6.72-16.29-38.19-3.93-16.29,24.15,15.72,3.93,5.61,4.5,10.11-2.82,32.01-.54Zm-143.49-22.32l.57-10.95-3.75-1.44-7.47,1.44-4.29,3.75-1.44,5.16,1.44,4.32,11.49,4.89,3.45-7.17Z"/><polygon class="cls-3" points="9276.89 1688 9281.09 1694.81 9275.81 1698.08 9248.12 1701.29 9246.68 1687.64 9276.89 1688"/><polygon class="cls-5" points="9228.41 161.03 9230.66 170.03 9198.65 170.57 9188.54 173.39 9182.93 168.89 9167.21 164.96 9183.5 140.81 9221.69 144.74 9228.41 161.03"/><polygon class="cls-6" points="9151.1 342.44 9149.78 354.62 9123.47 407.27 9116.09 410.96 9112.94 404.63 9134.87 367.79 9134 355.16 9133.34 345.56 9133.34 345.53 9151.1 342.44"/><polygon class="cls-6" points="9112.94 404.63 9116.09 410.96 9095.39 421.31 9092.75 453.77 9061.46 478.1 9062.93 475.7 9061.16 478.34 9061.46 478.1 9043.61 507.29 9038.24 526.7 9028.34 523.07 9032.57 508.52 9052.4 473.06 9082.22 447.62 9088.37 415.16 9112.94 404.63"/><polygon class="cls-3" points="9097.4 629.15 9092.48 642.29 9056.93 625.34 9058.52 612.29 9066.77 613.31 9097.4 629.15"/><polygon class="cls-5" points="9087.74 136.76 9087.17 147.71 9083.72 154.88 9072.23 149.99 9070.79 145.67 9072.23 140.51 9076.52 136.76 9083.99 135.32 9087.74 136.76"/><polygon class="cls-6" points="9059.93 1729.67 9073.16 1743.17 9067.13 1754.09 9059.36 1754.09 9053.9 1763 9036.08 1765.58 9023.72 1768.76 9013.37 1769.03 9010.79 1754.96 9017.09 1745.75 9035.78 1754.39 9041.84 1739.15 9035.51 1723.91 9033.5 1701.77 9044.99 1691.99 9059.09 1700.03 9055.64 1715 9059.93 1729.67"/><polygon class="cls-6" points="9029.6 630.98 9033.98 669.59 9025.19 703.82 9023.36 712.25 9015.05 709.43 9024.86 674.15 9019.94 639.77 9007.76 611.54 9015.56 608.18 9029.6 630.98"/><polygon class="cls-6" points="9029.21 559.16 9015.56 608.18 9007.76 611.54 9006.59 608.87 9010.1 585.71 9018.68 556.28 9029.21 559.16"/><polygon class="cls-6" points="9018.29 735.62 9009.41 776.63 9012.05 876.65 8980.46 1208.3 8967.65 1207.76 8997.47 892.79 9000.11 830.51 9000.29 762.59 9008.66 732.44 9018.29 735.62"/><polygon class="cls-3" points="8980.61 1886.9 8983.07 1922.27 8968.37 1926.11 8943.5 1920.53 8946.32 1910.72 8964.86 1910.03 8966.27 1894.97 8948.96 1883.03 8954 1875.71 8980.61 1886.9"/><polygon class="cls-3" points="8902.64 21.38 8894.21 39.62 8809.19 .35 8858.45 .35 8902.64 21.38"/><polygon class="cls-5" points="8860.7 1224.47 8820.89 1360.82 8664.83 1283.3 8604.83 1258.01 8643.62 1129.07 8662.46 1119.44 8860.7 1224.47"/><polygon class="cls-5" points="8582.03 1279.88 8536.58 1408.28 8453.21 1364.42 8499.11 1249.52 8582.03 1279.88"/><polygon class="cls-3" points="8449.16 2040.29 8445.17 2047.67 8379.74 2012.18 8261.6 1981.34 8263.37 1973.36 8363.75 1995.47 8402.6 2011.58 8449.16 2040.29"/><polygon class="cls-5" points="8406.98 1495.43 8367.77 1602.17 8325.62 1573.34 8380.73 1478.48 8406.98 1495.43"/><polygon class="cls-3" points="8371.25 174.71 8347.16 254.57 8308.88 279.2 8291.36 319.13 8277.14 323.78 8275.19 332.75 8267.96 331.94 8269.49 318.56 8281.82 314.09 8303.09 270.65 8332.79 253.85 8358.11 171.98 8371.25 174.71"/><polygon class="cls-3" points="8275.49 873.56 8172.29 1105.37 8158.55 1096.76 8267.45 869.99 8275.49 873.56"/><polygon class="cls-3" points="8190.35 890.3 8209.28 912.02 8168.66 1031.75 8133.74 1081.22 8120.81 1073.09 8153.6 1026.86 8188.97 926.03 8186.87 909.23 8096.54 868.61 8102.48 855.65 8190.35 890.3"/><polygon class="cls-3" points="7981.91 643.22 7990.67 669.02 7922.27 864.05 7881.77 948.23 7865.12 939.71 7890.77 894.23 7893.38 878.06 7854.86 863.6 7858.82 851.36 7902.59 864.47 7970.84 678.05 7967.78 655.73 7843.94 587.9 7818.11 662.3 7805.42 674.99 7769.09 670.16 7768.22 657.02 7797.53 658.79 7805.87 654.86 7827.74 582.62 7757.27 558.56 7762.22 543.86 7838.36 570.56 7981.91 643.22"/><polygon class="cls-2" points="7882.52 55.37 7681.49 192.95 7671.95 176.09 7680.92 169.91 7670.81 153.08 7735.4 117.14 7766.84 90.74 7746.08 70.55 7665.77 121.64 7642.76 94.13 7612.43 111.53 7596.14 85.7 7620.29 68.84 7595.57 16.07 7595.57 .35 7771.04 .35 7770.2 31.22 7810.52 .35 7869.2 .35 7775.84 71.09 7789.85 90.2 7869.59 45.26 7882.52 55.37"/><polygon class="cls-3" points="7737.26 1356.41 7738.01 1365.8 7689.89 1418.33 7680.02 1412.3 7729.28 1357.04 7737.26 1356.41"/><polygon class="cls-3" points="7707.83 669.74 7639.94 812.33 7626.5 803.33 7694.69 660.98 7707.83 669.74"/><polygon class="cls-3" points="7523.48 31.64 7654.07 220.34 7653.68 229.25 7648.1 229.01 7507.25 36.83 7502.3 .35 7516.79 .35 7523.48 31.64"/><polygon class="cls-3" points="7523.99 1033.79 7531.31 1044.47 7388.63 1273.28 7382.18 1269.26 7517.87 1043.42 7511.3 1031.18 7471.46 1009.73 7459.22 1027.25 7453.1 1025.06 7466.21 1004.03 7473.65 1002.74 7518.74 1027.67 7523.99 1033.79"/><polygon class="cls-3" points="7433.21 497.99 7434.08 505.94 7427.9 506.63 7371.02 465.05 7317.62 450.62 7294.13 417.62 7298.81 414.29 7320.68 442.73 7370.12 454.1 7383.26 433.55 7384.13 412.52 7394.63 410.78 7397.69 438.8 7384.49 461.24 7433.21 497.99"/><polygon class="cls-3" points="7388.63 1273.28 7382.93 1282.43 7271.84 1216.64 7275.41 1210.61 7382.18 1269.26 7388.63 1273.28"/><path class="cls-3" d="M7296.62,381.47l9.18,11.37-6.99,21.45-4.68,3.33-1.47-2.04-24.93-8.31,.42-21.87,17.94-7.89,10.53,3.96Zm-8.04,19.53l3.57-7.17-5.7-5.64-7.11,3.69,1.32,7.92,7.92,1.2Z"/><polygon class="cls-3" points="6956.96 2594.18 6924.62 2594.18 6899.42 2578.88 6878.09 2580.53 6867.32 2594.18 6844.55 2594.18 6868.79 2565.2 6902.18 2565.2 6956.96 2594.18"/><polygon class="cls-5" points="6883.7 1032.08 6838.16 1120.04 6814.97 1109.54 6858.74 1019.84 6883.7 1032.08"/><polygon class="cls-3" points="6825.08 139.64 6836.72 154.49 6773.75 305.96 6760.61 301.04 6825.08 139.64"/><polygon class="cls-3" points="6799.31 2563.01 6786.44 2594.18 6774.56 2594.18 6792.2 2559.74 6799.31 2563.01"/><polygon class="cls-3" points="6740.15 .35 6765.17 42.11 6763.19 43.28 6680.6 189.35 6667.46 184.43 6749.51 38.9 6719.39 .35 6740.15 .35"/><polygon class="cls-3" points="6492.89 1702.94 6494.81 1710.53 6476.42 1717.52 6455.42 1741.16 6439.67 1744.22 6437.9 1739.84 6442.31 1738.04 6464.03 1717.88 6457.76 1716.32 6457.25 1709.87 6469.19 1708.91 6492.89 1702.94"/><polygon class="cls-3" points="6457.25 1709.87 6457.76 1716.32 6441.86 1729.97 6422.57 1738.28 6406.67 1752.83 6366.56 1750.82 6355.82 1757.99 6375.29 1763.81 6380.69 1760.69 6414.98 1770.53 6427.97 1743.89 6437.9 1739.84 6439.67 1744.22 6421.28 1782.32 6385.4 1772.69 6377.51 1773.11 6336.02 1761.02 6337.88 1754.63 6357.14 1743.44 6399.29 1745 6454.85 1710.05 6457.25 1709.87"/><polygon class="cls-3" points="5998.67 323.45 6000.77 330.5 5981.18 336.32 5979.2 328.28 5998.67 323.45"/><polygon class="cls-3" points="5979.2 328.28 5981.18 336.32 5964.2 404.18 5954.9 403.61 5969.15 341.81 5871.11 362.84 5869.52 355.46 5979.2 328.28"/><polygon class="cls-3" points="5844.8 49.85 5840.33 58.16 5743.22 .35 5766.59 .35 5844.8 49.85"/><polygon class="cls-3" points="5809.76 204.95 5807.18 213.41 5796.53 222.38 5790.59 218.69 5800.82 202.22 5809.76 204.95"/><polygon class="cls-7" points="5107.25 517.37 4986.89 455.39 5006.9 422.57 5107.25 517.37"/><polygon class="cls-3" points="5051.51 .35 5014.91 27.86 4988.03 .35 5000.18 .35 5013.59 14.75 5031.92 .35 5051.51 .35"/><polygon class="cls-7" points="4922.87 297.23 4671.02 344.18 4791.95 187.49 4922.87 297.23"/><path class="cls-3" d="M4811.24,.35l-37.74,42.18-48.69,24.6-78.24,82.62,14.76,28.98,1.11,12.03-15.87,28.47,44.31,38.82-8.22,12.6-88.62-68.94-2.73-14.22,123.09-132.93,43.77-15.33L4796.27,.35h14.97Zm-176.34,210.93l15.06-25.92-22.41-19.59-22.05,25.2,29.4,20.31Z"/><polygon class="cls-3" points="4679.06 357.86 4679.6 380.84 4676.87 388.7 4660.67 389.15 4632.23 406.22 4625.12 403.82 4627.28 397.46 4641.62 381.02 4669.64 376.82 4671.02 357.92 4679.06 357.86"/><polygon class="cls-3" points="4627.49 2553.89 4635.17 2575.25 4629.11 2594.18 4612.13 2594.18 4620.65 2570.99 4606.97 2554.76 4110.74 2261.99 4113.89 2252.87 4627.49 2553.89"/><polygon class="cls-4" points="4613.75 592.04 4534.82 555.77 4507.61 517.52 4497.59 538.67 4490.78 535.55 4472.18 526.76 4479.71 504.95 4408.58 254.39 4401.74 103.85 4434.23 255.98 4506.89 480.8 4560.74 548.33 4613.75 592.04"/><polygon class="cls-6" points="4603.13 .35 4604.87 46.19 4598.33 56.69 4579.07 57.14 4584.74 76.82 4583.87 95.66 4494.59 92.6 4476.2 75.95 4480.16 62.39 4460.9 55.4 4460.21 .35 4603.13 .35"/><polygon class="cls-4" points="4573.97 637.52 4511.87 730.94 4442.12 940.19 4397.93 1136.18 4420.37 910.73 4420.58 900.11 4420.58 900.08 4488.77 699.83 4516.46 612.02 4537.91 621.53 4533.41 644.69 4549.43 626.63 4573.97 637.52"/><polygon class="cls-4" points="4419.77 569.18 4424.63 705.59 4420.58 900.08 4420.58 900.11 4420.37 910.73 4397.93 1136.18 4336.49 1493.42 4329.77 1532.51 4324.46 1563.29 4188.23 2038.79 4113.89 2252.87 4110.74 2261.99 4054.67 2423.42 3995.9 2594.18 3948.11 2594.18 4044.71 2301.11 4068.14 2236.85 4071.38 2227.97 4153.88 2001.59 4269.02 1593.68 4285.94 1508.12 4292.9 1472.99 4338.26 1243.67 4368.17 988.07 4377.59 810.29 4378.31 752.48 4379.3 674.39 4374.05 548.93 4371.11 479.15 4358.81 185.51 4353.35 93.62 4291.52 357.29 4279.67 437.66 4247.99 424.28 4264.73 362.75 4224.23 392.3 4196.18 399.26 4196.15 399.26 4157.03 371.33 4208.93 366.59 4232.45 358.94 4266.92 321.2 4294.25 223.25 4323.8 93.62 4328.12 .35 4396.04 .35 4401.74 103.85 4408.58 254.39 4417.34 500.93 4419.77 569.18"/><polygon class="cls-4" points="4378.31 752.48 4377.59 810.29 4368.17 988.07 4362.98 910.25 4351.31 780.2 4348.64 750.23 4294.61 583.37 4237.16 506.24 4170.86 442.88 4201.07 463.58 4267.31 501.8 4285.85 528.11 4292.39 514.7 4317.5 525.05 4315.4 551.63 4378.31 752.48"/><path class="cls-3" d="M217.19,78.62L98.3,21.17,51.71,102.08l118.8,59.94,17.43-9.03,29.25-74.37ZM4371.11,479.15l2.94,69.78h-.03l-20.31-9.03-36.21-14.85-25.11-10.35-9.39-3.84-15.69-9.06-66.24-38.22-30.21-20.7-230.94-158.28-22.44,50.49,28.71,15.03,45.15,55.41-24.63,84.78-10.26,47.88,29.43,11.61,34.17-80.67,61.56-16.41,4.08,8.19-50.58,15.72-38.31,82.08,3.42,26.67,338.49,162.75,4.11,32.82-354.39,542.58,97.8,47.16,98.46-166.83,17.79-51.99,32.13-21.18,75.9-121.74,10.95,3.42-78.66,128.55-30.75,21.9-23.25,55.38-88.92,160.05,144.96,72.21,48.06,22.53-6.96,35.13-9-2.61-15.06,28.74-57.42,162.75-35.97,119.37-32.82,95.07-48.06,82.95-15.75,5.25-207.9-83.13-24,.12-88.68,45.96-79.08-7.5-104.7-52.35-243.15-132.33-1.77-13.56,23.19-.9-31.59-144.42-46.92,4.2-8.76,12.27-4.53,21.69-8.07-2.79,3.12-21.15,19.83-24.63,35.55,.69,8.22-6.84-50.61-295.59-80.01-41.01-108.06,201.72,106.68,52.65,4.11,19.17-57.45,105.3,25.98,12.3-4.08,10.95-149.76-82.74-26.67-3.42,7.53-21.9-405.66-235.65-16.95,4.95-169.98-92.76-409.44-229.11-262.41-154.71-333.36-178.65-435.96-260.7-195.72-111.99-17.97,35.07,41.88,24.78,353.88,198.3,415.35,232.23,86.85,64.26,42.99-3.03,.63,8.76-35.43,3.06,2.61,44.64-14.43,30.63,83.58,34.14,12.69-17.07,1.77-23.19,8.73-1.32,2.64,29.76,77.91,35.88,.87,17.07-22.77,59.07-6.99-3.06,20.13-56.88-3.93-7.89-72.21-33.69-14.46,15.33,.45,15.75-22.77,42-9.18-4.8,16.2-45.09-4.83-7.86-71.76-35.01-49.89,99.33,312.69,167.28,43.77-63.45-39.18-19.8-3.06-10.95,24.51-46.83,9.18,7.02-18.36,43.77,33.69,15.3,36.75-59.52-129.96-70.02,4.8-10.5,132.6,69.57,14.88-28.86,4.26-7.38,364.62,211.05,8.19-5.46,165.51,90.24,335.76,212.01,96.42,62.22,30.09-4.11,310.44,188.07,75.39,41.88,685.05,401.49-3.24,8.88-89.79-52.98-47.04,100.14,24.63,10.92,31.71,4.92,1.65,11.49-34.47,.57-10.38,38.82-14.22-4.92,12.57-39.93-18.6-8.22-69.48,222.12,54.15,17.52-5.46,14.76-339.72-130.2-15.33,8.19-28.98,90.81,158.37,73.32h-36.36l-418.77-172.56-1.08,123.09,77.67,.54,21.33,24.09-1.62,8.76-4.71,16.08h-12.57l8.52-19.92-13.68-16.95-78.24,.54-7.92,36.33h-60.03l44.43-181.86-54.15-6-45.12,187.86h-19.53l42.21-198.27-73.29-10.95-45.03,209.22h-23.64l48.96-210.84-72.21-12.6-54.3,223.44h-16.23l45.78-230.4-73.32-10.95-53.67,241.35h-14.67l33.33-143.97-34.47-3.27-35.55,91.35-35.76,55.89h-16.14l29.46-47.7-31.17-15.3,3.27-9.3,36.66,12.03,49.8-133.47,10.38,2.19-4.92,28.98,31.17,6.57,14.79-83.16-200.22-34.47-103.8,273.63h-35.82l8.76-32.37-233.28-115.53-24.93,41.13,182.04,106.77h-115.53l-91.38-60.21-28.44,60.21h-27.9l37.89-74.58-43.77-33.48-27.36-25.32-80.67,125.16,11.85,8.22h-35.85l-66.27-55.41-29.04,55.41h-18.9l37.68-66.36-64.95-41.7-63.63,108.06h-21.03l73.71-120.39-96.42-57.42-101.37,177.81h-42.75l66-115.14-175.05-84.84-6.99,29.13,5.31,17.91-28.29,75.36-37.26,7.83-16.23-13.44-22.41,17.94-3.63,41.73,8.1,11.49,48.75,.84,2.43,11.19h-56.1l-19.56-26.25,10.38-50.34,25.74-20.76,14.22-67.86,21.87-14.22,38.31-1.62,6.54-25.74-65.64-37.74-37.74,108.87-6.57-3.27,32.28-109.41-195.3-87.54-21.33,59.64-19.71,95.19,1.65,42.12,19.14,52.5,88.08,21.9,1.11,13.11-79.89-15.87,40.53,67.29h-23.34l-59.31-112.14-3.84-60.18-92.43-37.74,4.92-11.49,89.16,37.2,1.65-30.63,10.38-51.96-122.52-51.99-122.01,167.4-53.31,151.53h-33.63l20.91-66.09-121.47-40.95-15.06,36.42,58.11,19.26-1.38,8.04-61.29-18.9-21.48,62.22h-21.57l96.81-264.09,75.51-61.29-47.04-17.49,2.16-9.3,56.37,18.06,27.33-16.98,19.17-39.93-34.47-77.13-48.69,6-97.92-44.31-58.53,16.98-31.05,74.13,6,26.25,80.43,30.63,42.66-3.27,4.92,12.03-50.31,3.81-78.24-30.06-27.9,4.35,3.84,111.06-18.6,14.22-26.28,2.73,6.03,82.08-17.49,1.62-5.49-82.05-25.17,.54-28.44-33.36-111.6-35.01,78.63,177.12,104.28,132.66h-19.29l-108.78-142.65-79.32-171.24-77.67,200.79,127.44,44.85-3.81,9.3-126.93-40.5-7.65,19.71-16.95,13.14,74.4,26.25-3.84,9.84-100.11-35.01-21.33,50.34,48.87,15.18h-76.41l-138.36-45-13.56,45h-12.33l71.7-278.19-8.19-2.04-19.83,16.41-24.63,5.46L.35,2346.95v-43.71l55.62-7.14,54.51-34.2,128.19-176.28,6.42-128.22,33.12-80.16-148.5-87.6-30.99-19.23-30.78-47.01,16.23-6,27.36,39.33,147.87,84.63,37.62-13.68,143.4-342.48-12,.24-14.43-7.86-10.35-7.29,2.91-4.11,22.32,12.27,14.67-.69,1.68-4.02,14.52-17.1-5.97-15.39-347.04-143.58-3.99-9.48-42.45-1.17,32.19,27.3-4.11,5.73-47.7-34.17-40.32,1.44v-8.25l98.13-1.08-2.88-6.84,67.53-147-88.89-76.95,2.58-23.94,282.06-374.37,23.1-8.55,75.21,50.43,19.65-1.71,201.75-110.28-21.39-65.82-3.42-28.2-143.61-50.43,5.13-11.13,140.04,47.04,45.81-120.36-253.71-96.42-125.82-68.4-75.9-86.16-15.72-8.88-31.47,64.95,3.42,27.36,57.45,31.47-5.49,10.26-64.95-30.78-12.3-1.38-69.93,139.5-.87,40.17-42.72,75.24L.35,510.2v-20.22l46.32-43.2,36.24-81.39,3.42-44.43,70.44-132.66-7.53-26.01L47.33,112.37,.35,199.22v-44.82l23.01-33.72L.35,109.01v-21.9l30.66,14.97L87.35,11.81,65.42,.35h45.33l154.38,87.21,65.22,77.49,368.94,164.97,14.34-23.88-4.92-53.58-18.18-14.7-63.03-29.4L333.95,45.77,266.24,10.91l4.92-10.56h22.8l-3.78,8.52,169.59,87.51,17.79-31.44-66.36-30.78,5.49-14.37,62.22,25.98L504.2,.35h21.99l-31.56,58.44,93.69,53.31,20.52-33.48-19.83-30.78-1.38-28.05,8.91,1.38,6.84,30.09,10.5,17.58h27.57L617.57,.35h44.61l63.09,191.76,69.09-30.09,3.42,13.68-58.14,29.4,13.68,44.46,177.03,105.03,24.69,14.64,156.66,97.47,43.77-98.49,12.3,3.42-43.08,99.15,49.92,27.36,119.4-68.16,106.95-61.08,233.19-169.59-116.7-58.98-74.1-37.44L1228.7,.35h96.48l288.45,144.63L1673.42,.35h19.41l-59.07,156.87,38.07,11.82,69.15-78.78L1846.43,.35h32.01v3.78l-128.73,104.73-59.16,74.58,272.4,181.02,56.7-112.74-3.84-24.87-39.93-20.64-6.3-18.21,13.32-30.81,28.35-30.12,24.87-45.87-1.41-27.99L2053.88,.35h56.73l24.48,10.08,8.49-10.08h16.17l-12.06,27.99,14.58,7.02,14.7-35.01h18l-20.37,46.77,11.49,9.24,35.85,10.08,15.12-40.89,13.71,4.2-65.64,160.23,10.92,53.34-9.57,35.55,78.66,13.68L2350.01,.35h36.03l-61.47,206.16,113.34,36.78,84.03-229.77-34.56-13.17h47.49l109.62,47.76,249.9,92.34L2953.22,.35h21.36l-63.72,158.46-5.25,14.88,12.69,192.57,14.46,40.26,119.34,190.47,114.72,299.79,136.74,72.48,149.76-310.47-9.63-14.01-43.74-.42-3.96-94.11-58.65-.42-10.5-6.57-2.43-36.84,9.78-18.93-131.97-69.3,3.69-7.59,138.81,67.11,59.85,58.8,32.91,1.05-1.38-64.41-314.43-167.37,6.66-10.86,307.05,160.71,9.12-36.39-6.3-28.02-81.6-45.51-71.4-72.12-153.36-171.93-11.55,11.22-3.15,43.77-13.32,1.05,4.92-46.59,12.93-15.75L3040.88,.35h40.89l91.35,99.75,11.37-7.89,7.89,6.15-9.18,12.24,45.06,50.34,15.33-16.2,5.67,4.8-7.44,31.08,32.85,34.14,5.67-8.31,18.39,11.37-4.38,16.65,70.89,68.25,64.35,35.46,40.26-160.62,7.89,1.53-32.55,168.18,10.41,2.19,62.37-285.03L3383.63,.35h37.32l100.83,53.13,6.03-27.33-1.32-25.8h51.81l-12.15,30.63,17.52-9.18,17.49,1.74,64.77,52.53,2.19,12.69-39.39,69.15-19.68,8.73-66.54-30.18,8.76,24.93-14.01,110.31-22.74,3.93-7.02,117.27,142.26,114.24,54.69-57.78-20.55-52.08,17.04-5.25,24.09,64.35-55.14,56.01,103.29,56.01,155.16-296.67,4.11-23.91-56.07-39.69-7.53,6.84-179.16-134.01,2.04-12.33L3603.5,.35h55.95l93.15,66.24L3790.1,.35h18l-38.4,78.54,144.27,116.94,66.33-116.25L3827.48,.35h40.68l120.69,60.6,24.63-49.92,13.65,4.8-25.29,56.07,34.89,15.72,25.29-25.29,75.9-20.52-14.37-15.72L4074.32,.35h37.23l34.59,16.86,4.77,19.83,68.4-18.48h17.07l3.42,88.23-45.81,163.41-32.13,13.68-115.56-45.12-19.17-34.89-23.25-8.88-5.46-19.14,27.36-60.87v-15.72l-30.09-14.37-66.33,115.56,36.93,23.94,17.76-.69,22.59,26.01,9.57,21.18,140.82,100.44,39.12,27.93h.03l10.8,7.71,41.01,17.31,31.68,13.38,32.64,13.77,58.8,27.72Zm-44.04,300.36v-18.48l-45.15-24.6-365.25,544.44,56.1,32.16,354.3-533.52Zm-425.34,492.15l360.96-540.57-51.96-21.9-351.9,540.6,42.9,21.87Zm331.05,275.28l28.02-47.19-230.43-116.91-283.8-138.84,83.43,68.4,170.97,172.32,184.62,224.97,47.19-162.75Zm-5.46-1441.59l-3.51-75.27-7.35-.36-69.33,20.67-5.61,12.24,8.07,37.47-26.97,52.53-8.76-7.35,21.36-53.58-8.4-34.32-52.17,12.96-35.7,31.5,2.43,23.82-29.4,54.96,28.35,19.62,20.67,29.76,78.78,35.01,22.41,1.05,17.85-3.51,11.91-18.9,35.37-138.3Zm-387.09,1136.55l352.77-543.69-232.5-105.57-28.98,11.46,194.79,100.35-3.84,8.76-19.68-8.76-.03,.03-7.77-4.41-65.64-27.36-333.09,498.87,62.67,32.22,130.95-196.44,11.04,4.59-127.35,198.33,66.66,31.62Zm333.81,493.08l-95.19-119.82-37.74,55.26,22.44,.54,34.44,22.98-67.83,142.77,95.19,53.64,48.69-155.37Zm-93.57,231.3l29.34-62.58-150.57-84.9-14.88,27.99,1.32,14.88-6.9,1.02-3-20.16,17.49-28.44-337.29-196.44-77.97,132.66,6.84,30.09-10.26,2.04-9.57-36.24,77.97-134.7-75.9-48.54-121.05,218.82,226.11,131.88,57.99-96.84,13.68,6-57.45,99.57,25.71,13.14,73.32,7.65,93-45.96,23.52-2.16,48.15,16.41,30.09-39.39,5.79,4.05-27.84,39.81,147.06,60.42,15.3-10.08Zm.03-258.66l-15.33-18.6-20.79-1.11-42.66,65.1-21.87,8.76-59.1-26.79-20.79,26.25,120.9,69.48,59.64-123.09Zm-14.22-111.06l-109.29-130.74-142.38,246.18,74.97,43.2,41.58-65.64-2.19-9.84-36.12-20.79,5.49-11.49,41.55,27.36,4.38,17.49-14.22,31.74,54.15,24.06,8.76-4.92,41.58-74.94-3.27-10.41,35.01-61.26Zm-386.91-433.71l327.69-500.52-64.02-29.55-94.8,139.65-203.88,247.65-9.84-5.49,53.04-72.21-119.79-54.69,34.47,173.94-.57,63.48,77.7,37.74Zm298.23-588.9l2.19-5.7-36.78-17.07-4.98-15.72v-19.65l32.49-107.7-28.23-40.2-38.46-11.97-115.38,221.4,81.21,43.59,35.28-28.17,42.9-15.75,29.76-3.06Zm-17.52,1607.67l-5.16-11.61-90.6-52.53-17.49,38.1-5.7,48.57-33.69,87.54-11.4,62.13-11.82,28.44-8.31,10.08-32.37-.87-24.51,69.66,121.38,50.43,76.08-239.34,43.59-90.6Zm-15.48-725.76l-90.93-93-30.78,55.38-4.11,32.82-10.92,3.42v-30.09l34.17-74.55-28.02-17.07-139.5,294.72,132.66,78.63,137.43-250.26Zm-40.02-797.22l25.71-36.66-21.33-9.3-117.06,88.62,33.9,59.07,78.78-101.73Zm-126.39,27.27l72.66-53.01-179.52-90.6-23.07,69.24,129.93,74.37Zm50.13,1467.54l16.62-46.83-166.74-84.9-51.66,91.02,8.34,7.44,192.99,63.03,.45-29.76Zm-43.65,132.99l35.01-86.22-206.58-66.09-92.4,229.23,3.06,17.07,95.91,41.67,17.52-42.9,30.63,2.64,6.99-17.52,12.69-3.06,39.84,13.56h38.52l21.87-51.63-3.06-36.75Zm30.75-1511.28l-42.69-60.72-194.61,141.72,.96,16.92,126.36,53.61,109.98-151.53Zm-158.01,847.53l147.03-302.91-94.38-88.23-.69-12.3-321.39-162.75-124.47,218.82,20.52,17.79,8.91,104.61,255.06,153.18,103.26-171.63,10.26,6.15-99.18,170.28,43.77,33.48,51.3,33.51Zm-91.53-781.56l197.46-142.5-120.36-68.73-80.25,198.63,3.15,12.6Zm157.08,1562.58l2.64-16.2-39.84-13.98-6.12,13.11,43.32,17.07Zm-17.07,46.83l10.08-35.46-72.21-20.13-8.76,29.34,70.89,26.25Zm-101.82-341.46l59.52-98.04-279.24-158.85-17.07,97.59,127.8,61.26-3.06,9.63-128.22-61.26-64.38,172.5-14.76,32.82-24.63,118.71,33.93,8.76-2.73,10.95-33.93-4.38-24.06,102.3,158.1,64.56,103.95-352.32,13.65,4.92-103.38,354.51,96.96,36.78,24.06-84.03,9.21-13.56-22.32-12.24-12.27-20.58,102.87-270.03Zm-44.49-1294.11l101.49-279.93-166.68-112.2-24.57,89.76,5.34,85.47,84.42,216.9Zm93.3-721.8l-1.77-14.43-64.32-45.54-26.25,19.71-17.07,67.83,65.19,28.02,14.01-5.7,30.21-49.89Zm-85.47,1008.99l-35.91-207.54-5.97-2.1-48.3,37.44-133.74,58.83,223.92,113.37Zm-48.51-249.63l-59.25-139.92-114.33,252.63,76.92-28.26,95.25-58.14,1.41-26.31Zm-125.85,921.03l121.05-218.13-214.74-129.93,67.71,336.45,25.98,11.61Zm51.9-1139.67l-1.68-33.9-5.04-1.68-1.98-46.77-25.47-.84-1.68,80.67,35.85,2.52Zm-108.39-98.61l49.29,.3-40.62-37.26-8.97,10.65,.3,26.31Zm-86.22,734.19l117.51-225.45-54-27.33-122.16,225.66,58.65,27.12Zm85.77,675.18l11.49-106.68-161.94-88.62-41.58,86.97,192.03,108.33Zm-45.09,114.66l33.72-97.17-191.25-108.54-57.33,127.8,214.86,77.91Zm-60.93-920.34l66.75-130.74-104.49-51.96-9.84,19.68,31.74,148.8,15.84,14.22Zm6.12,1095.57l43.35-158.85-206.58-76.59-105.48,228,190.38,30.21,78.33-22.77Zm-36,160.59l32.28-141.12-62.37,18.6-22.44,108.84,52.53,13.68Zm15.84-1232.79l-2.04-14.37-16.41-30.78-29.4-123.09-19.17,19.17-39.66,66.99,19.17,16.44,.66,17.76-88.2,147.72,83.76,48.12,5.13-.93,86.16-147.03Zm-47.58,366.78l-6.12-11.82-91.02-46.38-11.82,3.06-49.02,91.47,110.28,61.71,47.7-98.04Zm-98.22,417.15l97.92-207.87-89.73-54.72-80.97,146.07-10.38-4.38,79.86-150.42-71.1-43.77-19.71,1.08-113.79,205.71,112.17,70.02,95.73,38.28Zm92.94-965.16l-5.25-49.02-28.89-12.69-168.93,294.99,72.21,39.9,80.97-136.62-1.74-13.59-18.39-12.24-2.61-9.63,46.38-82.29,26.25-18.81Zm-39.57,1400.34l27.36-106.65-473.22-76.05-38.31,105.57,484.17,77.13Zm2.28-1524.57l-99.24-254.94-114.18-184.74-24.6-8.91-38.97,67.02-55.05,82.5-21.72,29.76-82.26,92.79,22.02,9.33,15.75-9.63,169.8,71.34,3.96,32.82,219.69,90.6,4.8-17.94Zm-73.35,598.89l64.02-126.93-165.21-94.62-73.32,137.85,39.93,10.38,56.91-82.59,37.74,13.14,12.03,15.3-33.36,78.24,1.08,14.76,33.39,22.98-6.03,12.03-43.77-35.55v-18.6l32.82-73.32-30.63-13.11-55.8,77.67-50.88-13.11-22.41,33.9,3.27,7.65,25.17,6.57,112.14,65.64,6.03,22.98,9.3,1.65,47.58-62.91Zm-113.79-249.39l173.52-291.48-58.11-23.07-39.33,76.92-13.68-5.13,41.04-79.5-30.78-12.81-159,278.64,86.34,56.43Zm5.13,1016.34l120.57-259.77-114.87-52.68-99.84-58.11-39.66,58.11,30.78,15.06,58.11,8.88,3.42,13.68-20.52,89.58-12.99-4.77,16.41-75.93-4.08-10.26-19.8-6.72-21.42,.87-36.33-16.17-105.48,199.56-15.33,55.59,261.03,43.08Zm-227.64-871.05l281.43-484.8-225.66-104.28-106.83,207.69,7.68,82.92-108.54,180.51,61.26,39.93,31.74-37.2,33.9-64.56,9.84,4.38-33.9,65.1-23.13,44.67,12.6,33.9,59.61,31.74Zm263.34,167.04l3.51-9.81-120.09-64.08-3.84,5.94,120.42,67.95Zm-45.99,118.59l5.31-10.11-37.23-25.2-6.18,11.22,38.1,24.09Zm-45.18-318.84l43.5-96.69-88.05-57.27-114.63,198.27,94.65,50.34,64.53-94.65Zm-48.9,477.66l88.86-146.97-34.2-15.03-4.8-11.64-9.57,3.42-78.63,135.39-13.68-6.15,78.63-140.19,20.52-6.84,4.8-7.5-114.21-69.75-22.56,4.08-252.81,471.69,165.63,99.36,104.7-211.56,67.32-98.31Zm74.82-1391.43l-6.3-27.66-12.6,21.72,18.9,5.94Zm-11.55-42.45l-19.17-167.52,3.42-44.46-92.31-25.29-61.53,117.6-12.99-4.77,58.11-125.16-102.57-36.24-44.46,104.64-15.72-4.8,40.35-108.72-68.37-18.48-48.57-29.4-97.17,271.56,8.82,9.03,404.28,133.83,47.88-71.82Zm-91.17,138.45l26.01-51.96-404.85-131.97-73.83,220.86,75.12,33.15,9.63-26.22,52.89-49.08,40.77,6.51,16.83,13.23,44.34,35.16,17.73,30.93,77.19,68.16,33.93-33.9,48.15-64.68-2.88-11.22-243.45-88.2,2.07-11.64,254.37,91.65,25.98-30.78Zm-163.77,466.26l98.46-217.47-71.79-38.28-123.78,229.08,33.51,13.68,23.25-2.76,40.35,15.75Zm91.11,560.01l-16.41-31.47-76.77-37.38-131.85,254.91,94.2,49.83,7.05-2.01,123.78-233.88Zm-65.01-854.4l9.81-12.6-78.72-71.49-20.16-28.23-51.99-42.36-32.28-8.49-44.79,42.33-7.86,23.76,225.99,97.08Zm-101.88,1706.13l92.76-253.53-64.02-33.39-78.78,155.37-10.44-3.24,70.53-162.42-96.18-53.4-200.31,400.74,230.34,117.81,48.15-160.29-156.45-45.42,3.81-10.38,160.59,48.15Zm83.97-1326.27l-11.61-67.71-38.97-10.26-15.75,2.07-50.58-17.79-110.28,207.21,120.51,58.98,106.68-172.5Zm-53.49-278.04l37.44-73.17-116.22-51.81-6.3,9.78-6.93,1.98-1.47-5.13-96.3-39.21-43.05,71.79,79.83,37.8,37.11-1.38,87.51,32.55,19.62-39.93-72.78-37.83,3.09-5.91,81.93,37.8-24.15,52.86,20.67,9.81Zm-12.54,755.91l41.01-84.63-54.69-35.04-6.84-26.52-196.59-108.54-69.96,144.99,94.35,51.66-6.84,16.41-95.04-50.58-67.41,124.17,272.43,141.15,82.05-160.83-60.18-23.55,9.3-13.65,58.41,24.96Zm38.73-205.98l-17.52-39.93-188.19-103.41-6,10.41,12.03,20.25,199.68,112.68Zm-270.51,928.14l248.04-472.77-101.22-47.61-249.66,462.96,102.84,57.42Zm121.11-1252.2l116.94-218.04-111.06-44.85-45.96,2.73-76.59-38.82-31.71,52.5,16.95,18.6,29.55,8.76,27.9,7.11,13.11-10.38,18.06,1.62,6.57,20.79-21.33,13.14-19.71-10.95-55.8-12.03-28.44-25.71,.54-26.25,84.81-142.8-36.12-18.06-163.53,274.89,275.82,147.75Zm-238.44,1181.13l244.68-458.4-264.99-144.24-27.78,63.06,180.36,93.27-6.84,10.95-184.62-93.69-45.15,92.34,166.86,93.66-4.95,8.67-163.95-90.03-68.37,149.07,43.74,25.98,14.37-17.76,77.28,36.24-35.55,104.61-23.94,2.73-60.87-36.93-2.73-34.17-36.93-24.63-41.34,76.35,2.46,10.41,238.26,132.51Zm194.43-1098l36.12-68.94-402.09-213.36-36.12,63.45,402.09,218.85Zm-95.55-560.34l88.62-268.08-116.52-30.09-66.72,263.7,94.62,34.47Zm86.31,274.5l1.35-5.61-5.16-3.81-7.38,6.06,2.91,4.47,8.28-1.11Zm-33.87,372.3l33.93-76.05-404.28-210.6-47.61,83.7,355.05,195.3,62.91,7.65Zm-126.51,1246.74l83.43-147.72-362.43-201.72-25.98,45.81,112.83,75.21-5.46,10.95-110.79-72.48-6.84,12.3,99.15,67.02,110.79,195.57,30.09-15.03,19.14,2.04,56.07,28.05Zm30.42-1053.69l50.43-111.99-338.49-197.46-20.52,37.62,113.7,64.11-5.13,11.97-124.8-60.69-43.59,69.24,368.4,187.2Zm49.86-787.2l-3.87-5.61-118.77-51.84-149.76,269.43,104.64,56.07,167.76-268.05Zm-97.35,878.01l30.78-73.17-359.7-186-46.5,62.22,375.42,196.95Zm-14.67,1021.95l24.51-44.19-53.82-26.7-20.13,3.06-17.94,9.63,67.38,58.2Zm-20.4-1999.17l39.36-165.24-86.64-12.27-3.93,8.34,3.48,24.06-9.63,.87-7.86-24.93-31.08,7.44-2.19-14.88,22.32-2.64,28.89-17.07,6.57-54.69-7.89-31.53-60.84-20.55,3.06-10.08,64.35,23.19,38.07-102.84-41.58-13.56-13.11-19.26-25.83-8.31,.42-19.71-63-15.75-17.28,51.63,6,25.17-33.36,52.41-18.84,18.81-11.79,40.29,34.56,21,7.26,25.53-48.57,128.58,229.08,105.99Zm-40.83,1129.71l67.02-136.77-374.07-190.8-88.89,129.93,395.94,197.64Zm-155.91-750.81l186.96-342.75-89.16-32.28-187.38,327.84,89.58,47.19Zm142.23,1145.88l26.7-39.84-53.4-25.38-33.27,62.58,1.77,14.46,50.31,25.83,7.89-37.65Zm-235.95,105.39l234.96-487.71-47.7-20.55-54.27,115.53-9.21-3.51,52.08-117.27-30.18-17.07-49.89,97.14-9.21-5.25,49.47-94.95-92.34-50.34-56.91,107.67-11.82-4.38,56.46-108.09-65.64-34.59-154.05,256.89,118.59,60.84,52.95-104.16,12.72,3.93-52.53,112.92,48.57,22.32,25.83-33.24,7.89,3.48-74.43,160.2,42.03,26.67-16.62,53.85-10.08-3.93,13.14-43.35-43.77-24.51-17.52,45.54-11.82-4.83,18.39-50.76-139.17-70.47-33.69-7.44-161.07-91.47-39.81,58.2,7.74,20.19,288.84,147.69,152.07,84.81Zm206.37,340.32l-104.64-190.77-105.99-88.23-123.78,225,63.6,41.7,11.79-2.61,61.2-94.32,23.94-6.15,73.35,53.85,2.04,23.94-71.1,99.15,89.58,64.95,80.01-126.51Zm-36.51-480.3l8.31-19.68-42.87-22.77-11.4,19.71,45.96,22.74Zm-179.67-1168.47l184.35-327.39-133.5-66.75-44.85,73.29,70.05,40.74-2.76,9.87-78.21-39.96-114.33,199.68,39.93,48.69,79.32,61.83Zm99.3,1603.41l-1.74-11.58-60.57-39.21-14.7,4.92-58.83,94.86,71.43,45.18,64.41-94.17Zm-50.01-1442.4l44.85-87.54-107.22-59.07-110.52-93.54-48.12-74.97-45.42-47.04,1.65-32.28,137.25-232.23-179.46-122.52-242.88,171.21,94.08,85.35-7.65,8.22-46.5-32.28-36.12,80.94,176.1,86.31,32.82-56.07,13.68,5.46-42.39,71.13-80.01-35.55-37.74,84.36,4.92,10.41,478.68,269.7Zm-179.88-292.5l161.22-273.06-90.84-52.5-139.08,229.71-1.74,21.87,27.12,17.94,43.32,56.04Zm101.13,1238.7l20.79-50.34-143.34-79.86-18.6,31.71,60.72,38.85,4.92,18.06,75.51,41.58Zm-67.32,402.51l86.34-168.42-86.34-45.3-85.47,160.71,85.47,53.01Zm44.88-350.55l14.76-36.09-76.02-43.23-16.41-24.63-115.44-71.64-32.82,3.27-80.97-45.96-30.63,47.61,172.32,92.43,34.47,6.57,130.74,71.67Zm-99.42-567.27l110.73-163.23-140.91-79.65-6.12,73.08-7.89,13.11-17.52,4.83-71.31-31.95,6.54-14.88,68.73,31.5,8.37-5.01,4.77-79.35-151.11-79.32-80.7,175.74,276.42,155.13Zm-41.31,340.98l146.16-252.99-102.57-52.14-56.4,66.66-105.15,176.07,117.96,62.4Zm34.53,442.05l46.38-87.96-338.73-176.4-28.44,3.96-31.53,62.13,352.32,198.27Zm-47.22,289.11l90.6-139.32-449.04-255.36-91.17,169.89,449.61,224.79Zm-20.7-963.3l62.91-93-268.74-146.34-47.16,88.89,252.99,150.45Zm42.84,294.87l12.03-24.63-153.18-82.59-21.9,32.82,68.94,41.58,34.47-2.76,59.64,35.58Zm-20.28,453.39l28.62-60.99-351.87-193.44-36.3,62.58,359.55,191.85Zm-200.31-471.69l168.9-265.32-258.03-143.85-31.74,71.13,51.99,25.71-4.38,9.84-53.07-22.44-35.55,69.48-.57,17.52-62.34,102.3,224.79,135.63Zm103.74-889.14l-5.25-22.32-53.85-33.69-21,38.94-128.22,14.01-15.75,28.44-13.14-4.8,21.87-34.14,123-15.33,17.49-34.56-325.05-187.53-12.03,18.03,4.92,76.05,46.17-2.73-1.77-19.26,14.88-.87-2.61,33.27-58.2,3.93,1.29,25.83,22.32,1.29,24.51,23.64,.96,17.37-8.64,.48-23.19-22.74-80.97-2.19-24.06,18.39-9.78-5.22-.42-23.37-36.69-57.42,.54-49.02-39.21-27.18-6.72-47.61-11.49-22.41v-54.06l-111.45-59.97-8.07,86.13,11.55,35.01,14.37,21.69-9.12,6.66-17.49-14.34-14.13,3.39-55.11,2.7-11.88,4.71-14.34-23.52-45.96,2.01-18.15,9.18,87.57,171.9,38.94-21.9,89.73,.45v13.14l-21.03,.42-2.61,127.8-12.27-1.74,.45-127.38-49.44,1.77-34.14,19.26,84.45,160.41,170.7-6.99,.42,13.56-148.35,9.63-8.31,24.93,87.84,245.85,58.53-10.38,67.29,.54,4.38,27.36-10.38,1.65-7.11-15.33-42.12-1.08-61.83,13.11,38.85,106.14,114.33-11.49,1.08,10.38-111.6,12.06,13.68,35.55h102.87l3.27,52.5-9.84,.57-3.3-42.69-88.62-1.08,27.36,78.24,30.63,.54,3.3,12.03-26.82,2.19,17.55,40.41,39.81-4.8,3.06-17.94,10.95,2.19,3.06,14.88,35.46-5.7,5.25-26.7,10.5,2.19,2.64,38.97-39.84,5.25v53.82l77.04-6.57,94.83-195.75-92.79-.45-17.49,21.87-35.91,1.77,.87-14.01,26.7-1.32,22.77-20.13,101.1-1.32,5.67-29.31-27.99-15.33,4.38-57.75-69.15,3.93-14.46-9.18-3.93-84.9-32.37-.9-17.52-3.93-17.94-97.59,13.14-13.56,149.22-9.21,44.22,9.63,1.08,30.84,41.19-.54-.3,12.33-40.32,2.79,1.95,40.32,43.44,22.41,116.34-234.66-13.56-8.31,1.29-55.17,10.53,.45,.87,46.83,10.05,3.93,20.58-48.57Zm-103.74,1551.27l-3.09-12.03-42,7.29-15.42,70.56,18.78,9.54,20.16-5.04,21.57-70.32Zm-46.17-588.69l42-63.03-219.69-133.92-21,27.15-3.09,41.58,9.21,13.98h11.82l56.88,61.29,58.2,36.75,32.4,13.14,33.27,3.06Zm-.33-1175.58l33.93-87.54-223.2-108.87-78.78,35.04,268.05,161.37Zm-14.22,554.7l14.01-33.27-20.58-8.76,6.57,42.03Zm-44.19,114.21l35.88-71.31-61.71,7.86-3.51,52.53,29.34,10.92Zm-.12-851.07l35.58-65.1-42.69-32.28-37.2,33.36-68.37,33.93,109.41,54.69,3.27-24.6Zm32.49,771.42l-3.48-81.39-10.53-4.8h-22.32l-.42,87.96,36.75-1.77Zm-16.8,632.91l-6-16.98-15.33-9.3-70.56-24.6-55.26-60.18-12.03,5.46,19.14,97.92,19.14,22.44,31.74,88.08-8.22,4.38-24.06-63.45-18.6-30.66-23.52,156.48-68.94,101.73-91.89,93,111.03,44.34,33.12-81.03,91.92-165.69-11.91-7.71,3.15-8.04,14.7,3.84,82.38-150.03Zm-8.13-736.62l-5.25-77.46-35.91-8.76-133.02,7.44-9.21,12.69,17.52,82.29,165.87-16.2Zm-26.28,106.35l-1.74-88.41-87.09,11.82v76.14l11.37,5.7,77.46-5.25Zm-158.91,402.9l47.19-61.53-27.36-7.53-39.66,16.41-28.71,5.49,13.68,45.81,23.91,35.55,10.95-34.2Zm17.88,222.03l-9.45-56.04-6.3,13.68-69.66,29.04,32.55,97.68,27.66-10.14,23.46,1.74,1.74-75.96Zm-6.3-135.87l-12.24-14.34-24.51,4.89,2.79,20.31,3.84,4.92,22.08,.33,8.04-16.11Zm-.93,292.41l-.84-63.03-20.73-4.2-16.26,7.02,12.33,60.21h25.5Zm-16.23-210.81l-1.74-16.8-70.38,21.69,5.25,18.57,66.87-23.46Zm-13.77,229.77l-100.53-291.99-88.89,15.72-8.91,8.88,46.5,139.5-21.87,56.07-12.78-7.2,20.52-49.26-47.88-144.96,4.11-12.3,104.61-21.9-142.92-48.54,5.19,19.47-8.1,2.16-12.24-18.9-28.02-2.1-11.55,15.39-5.97,11.55,1.41,15.78,9.45,11.55,15.06,7.35,20.31-3.15,11.19-18.57,8.67,2.07-4.02,16.89-11.64,12.3-32.82,2.73-31.44-15.03,2.04-34.86,13.68-26.01-23.25-5.46-217.47,75.9-36.9-4.77,2.04-201.06-120.36-42.39-26.67,12.3-25.29-8.19-110.49,276.39,3.6,25.26,11.22-16.53,7.14,3.84-11.49,23.52,15.3,36.66,58.53-5.49,2.76,9.3-56.91,4.38-15.87,71.67-2.19,90.81-16.95,7.11,33.36,93,43.23-9.84,2.19-12.57,12.03-12.06,22.98,1.11,7.11,10.38-2.19,18.6-16.95,9.3-22.44-2.19-42.66,8.22,36.66,105.57h25.71l106.11,39.96,23.52,24.06,61.83-5.46,6.03-10.41-4.95-107.76,26.28-6.03-3.84-26.79,29.55-71.13-100.38-41.46-3.51-21.87,74.4-139.62,21.87-3.06,188.64,101.1,87.96,195.18,75.27,30.21,9.63-26.25,12.69,3.48-12.24,29.34,31.32,10.95,38.04-40.68,69.33-74.22,33.51-64.95Zm-62.55-234.69l58.47-22.74-34.32-27.33-43.41-18.9-5.25,2.46,24.51,66.51Zm44.52-1186.56l7.89-15.33-168.93-100.2,2.19,49.02,7.44,8.31,4.38,44.64,31.5,28.44,115.53-14.88Zm7.41,129.54l-10.5-106.8-98.91,5.7-2.19,54.27,17.94,32.82,18.39,17.94,75.27-3.93Zm-.06,834.15l-3.06-62.13h-45.09l24.06,64.32,24.09-2.19Zm-30.51,123.42l-1.62-37.2-21.9-70.02-23.49-45.57-51.51,.54-1.14,24.36-10.92,5.91-58.26-.3v-67.77h10.65l1.95,56.28,42.57-.84,2.79-32.73,56.43-.87-50.76-117.72-4.11-6.69,1.92-1.2-48.54-133.08-50.79,37.11-44.1,29.07-21,9.09-4.92-6.3,55.68-38.85-12.6-24.51,6.3-4.92,19.95,25.56,48.66-37.8-74.13-192.48-83.7,71.67-5.46-8.22,86.43-74.94-15.33-53.61-43.77-52.53-88.35,45.81,51.42,58.56-6,7.65-60.18-64.56,1.08-8.19-73.29-2.19-19.14,6-28.47,30.63,6.57,98.49-1.62,36.09-31.2,42.12-78.33,39.72-11.37,26.7-5.28,84.9-.87,12.27-36.33,40.26,2.37,3.06,123.87,50.25,22.77-9.81,39.42-41.46-.69-.78,5.61-4.89,11.82-7.89,6.57,7.44-48.15,55.59,32.4,34.14-6.12,6.12-43.77-35.88-23.64,10.05-21-8.73-102.42-42.9-2.61,8.31,16.62,7.44,8.76,29.01,142.23,52.5,275.16,109.41,221.04,78.78,15.84-5.46Zm-229.35,674.31l111.48-144.96-97.11-41.73-16.41,31.47-120.36,89.58-43.08,129.24,124.44,44.46,41.04-108.06Zm-26.22-706.68l2.73-10.26-273.54-110.79-2.04,186.69,26.67-.69,209.25-74.55,36.93,9.6Zm-13.14,407.46l-45.18-90.33-79.47-39.57-18.21,40.62-7.68-4.2,18.54-42.72-98.37-53.22-10.86,2.46-37.11,71.43,39.21,19.95-5.25,8.76-38.16-16.83-24.87,43.08,2.1,8.4,84.03,38.16,16.47-37.47,9.45,3.15-12.6,31.86,68.25-14.34,97.68,44.1,42.03-13.29Zm-4.29-1521.81l-11.19-25.2v-111l-79.83-45.87-.72,54.63-51.45-4.2-3.15-19.26,14.34-2.82,2.46,8.07,27.66,2.79v-49.71l-54.27-27.3-35.01,68.97,14.7,8.4-8.04,12.6-12.27,.69-.33,71.1,28.35,54.24,29.07-10.14,.69-16.8,11.19,.36,1.77,15.03,45.15,.36,8.07,20.31,72.81-5.25Zm-16.23,375.96l-7.56-20.46-4.5,14.31-34.71,18.21-50.43,20.16,5.31,13.44,72.84-33.6,19.05-12.06Zm-12.27-28.92l-21-42.03-60.24-117.27-98.37,46.56,11.91,23.1-1.11,6.57-9.75-1.65-8.76-22.08-55.32,30.81-2.46,4.38-7.29-4.11-71.46-28.98-67.44-123.39-30.63,1.65-42.15-39.39-26.79-5.46L96.44,1021.46l-2.73,18.06,84.81,65.1,4.38,30.09-70.59,133.47,10.41,19.71,153.72,64.56,63.45-142.26-.54-36.09-37.74-94.11,3.27-25.71,16.41-33.9,40.5-13.68,46.26-42.03-32.82-103.71,8.76-1.32,33.27,101.1,109.83-55.59,13.59,.45,56.46,16.2,5.25-45.51,.99-1.95,6.57,3.27-3.51,49.02,43.77,63.03,23.79-12.27,91.38,3.51-.36-.75,6.66-3.12,22.41-2.79,70.74-42.36Zm-86.1-168.81l-91.38-169.59-200.22,107.22,60.72,112.71,68.4,31.17,73.29-38.28,89.19-43.23Zm-11.37,244.59l-.45-11.37-86.64-5.25-38.97,24.06-14.88,33.27-.12,13.05-.3,35.97,1.32,83.58-16.65,24.51-31.95,18.39,3.96,7.44,36.3-21.45,17.52-24.09,2.61-32.37-4.8-91.92,12.24-28.44,25.83-23.19,20.58-6.57,74.4,4.38Zm-68.85-794.28l-37.8-66.51,10.92-9.45-26.88-52.56-20.67,.33-10.86,25.56,1.29,15.12,16.08,11.55,27.66,35.01-12.93,31.5,47.94,20.67,5.25-11.22Zm-54.51,784.77l-52.08-69.6-56.88-12.27-119.91,57.36-31.89,38.58-.51,43.68,40.71,90.6,59.97,7.89,80.52,37.2,9.63,19.23,36.75-19.68-5.25-129.99,12.27-38.94,26.67-24.06Zm-3.45-830.58l-43.08-48.57-17.79,8.22-95.04-58.8-13.68,32.82,4.68,7.77,156.69,87.96,8.22-29.4Zm-70.02,1067.19l-18.48-34.2-94.35-35.55-40.35-3.42-50.61-103.95,4.11-34.86-38.31,8.88-13.68,25.32-1.35,30.09,12.51,34.14,28.23,77.07-70.02,157.92,170.49,69.66,24.18-2.46,24-29.91,2.61-24.51,8.76-87.09,10.08-23.19,42.18-23.94Zm-79.38,268.71l-9.09-10.86-15.42,6.66-.69,9.09,10.17,4.56,10.5-2.1,4.53-7.35Zm-45.24,640.17l-.72-10.05-9.87-1.08-3.93,4.83,.72,8.07,7.53,2.34,6.27-4.11Zm-57.24,111.3l-38.07-97.62-17.49,10.08-24.96,36.75,7.44,34.59-2.19,20.55-15.75,12.72-29.76-3.09-10.95-10.5-3.06-17.94-18.39,1.32-31.5,23.64-5.79-3.9,18.06-26.76,25.8-4.35,29.76-10.95,24.09-14.88,26.25-47.28,21-13.11-29.31-88.41-33.27-23.64-17.07,72.21-59.97,82.71-81.39,106.35,74.4,21.9-2.37,8.31-66.21-18.99,1.65,20.22-43.23,205.17,139.5,42.66,24.06-59.07,38.31-6.57,56.88-151.56-38.28-10.38-33.39,9.84-30.09,43.77-7.65-3.27,37.74-54.18,22.44-4.38-79.5-30.51,2.46-6.39,95.4,33.69,37.2,4.83,37.2-83.58Zm-25.92-362.1l-23.79-50.07-32.58,68.28-23.46,94.86,47.28,40.62,8.4-6.66,2.46-77.37,21.69-69.66Zm-61.17,345.9l-6.99-19.71-30.63,14.88,7.86,22.77,15.75,1.32,12.69-5.7,1.32-13.56Z"/><polygon class="cls-3" points="4102.76 704.48 4039.61 815.63 4025.93 810.86 4094.99 700.07 4102.76 704.48"/><polygon class="cls-3" points="4043.27 1915.94 4040.66 1924.7 3946.46 1875.38 3945.95 1876.13 3940.16 1872.08 3938.78 1862.69 3945.68 1861.67 4043.27 1915.94"/><polygon class="cls-3" points="3480.77 163.46 3477.74 179.09 3469.85 177.56 3147.86 .35 3184.37 .35 3480.77 163.46"/><polygon class="cls-3" points="3205.91 410.57 3205.91 410.6 3202.22 418.19 3114.68 419.24 3115.37 406.61 3196.25 405.92 3205.91 410.57"/><polygon class="cls-3" points="3013.01 .35 2941.73 141.92 2991.44 170.3 2946.98 260.96 2935.43 254.33 2973.23 176.93 2928.41 145.07 2995.64 .35 3013.01 .35"/><path class="cls-5" d="M2631.02,1445.66l-41.01,84.63-58.41-24.96-9.3,13.65,60.18,23.55-82.05,160.83-272.43-141.15,67.41-124.17,95.04,50.58,6.84-16.41-94.35-51.66,69.96-144.99,196.59,108.54,6.84,26.52,54.69,35.04Zm-158.49,151.71l32.13-67.02-43.08-20.52,29.4-53.34-34.86-13.68-64.29,123.09,80.7,31.47Z"/><polygon class="cls-3" points="2517.47 659.18 2524.1 673.91 2521.01 679.82 2515.01 676.7 2510.54 661.16 2517.47 659.18"/><polygon class="cls-3" points="1679.33 845 1999.91 1030.58 1995.65 1037.96 1674.41 854.15 1673.78 845.39 1679.33 845"/><polygon class="cls-3" points="1908.17 .35 1928.3 35.57 1856.09 184.79 1839.89 178.67 1907.72 34.25 1887.17 7.55 1878.44 4.13 1878.44 .35 1908.17 .35"/><polygon class="cls-5" points="1517.45 140.33 1517.45 140.36 1473.53 218 1380.53 230.99 1290.98 424.67 1268.66 430.34 1167.77 371.63 1155.47 368.21 1122.92 365.57 1055.96 292.94 985.07 344.12 945.68 331.43 930.35 354.59 753.32 249.56 739.64 205.1 797.78 175.7 794.36 162.02 725.27 192.11 662.18 .35 1228.7 .35 1443.35 102.89 1517.45 140.33"/><polygon class="cls-3" points="1253.81 811.94 1262.69 974.81 1249.55 975.23 1245.17 902.6 1169.9 904.34 1165.1 892.1 1242.98 889.01 1245.17 812.42 1253.81 811.94"/><polygon class="cls-5" points="1106.99 1773.71 1207.52 2065.7 1174.01 2130.65 1104.68 2204.87 1104.65 2204.84 964.07 2133.38 939.29 1985.51 629.84 1830.8 623.06 1774.01 659.96 1778.78 877.43 1702.88 900.68 1708.34 887 1734.35 884.96 1769.21 916.4 1784.24 949.22 1781.51 960.86 1769.21 964.88 1752.32 967.7 1740.5 964.67 1729.19 959.48 1709.72 1102.4 1758.26 997.79 1780.16 993.68 1792.46 1041.56 1937.42 1021.04 1986.68 1033.82 1993.88 1055.69 1937.81 1009.19 1798.31 1018.1 1789.43 1106.99 1773.71"/><polygon class="cls-3" points="1057.01 1438.94 1061.12 1445.63 970.52 1505.15 967.04 1494.2 1057.01 1438.94"/><polygon class="cls-3" points="964.67 1729.19 967.7 1740.5 964.88 1752.32 956.21 1750.25 956.57 1731.35 964.67 1729.19"/><polygon class="cls-5" points="913.49 1688.93 910.76 1699.19 873.83 1689.59 664.58 1764.14 637.91 1764.83 639.95 1578.14 913.49 1688.93"/><polygon class="cls-3" points="777.65 879.35 778.34 900.71 767.48 925.22 757.34 935.03 771.68 977.03 765.02 980.15 744.02 935.39 762.95 912.62 768.53 891.95 759.08 869.21 739.82 854.84 709.01 851 696.02 848.81 697.13 842.24 721.28 842.96 760.85 852.41 777.65 879.35"/><polygon class="cls-3" points="710.9 1325.87 717.05 1333.16 653.18 1397.87 683.6 1433.63 677.99 1438.52 640.01 1395.05 710.9 1325.87"/><polygon class="cls-3" points="619.73 860.27 609.95 877.61 603.38 874.34 612.44 856.16 619.73 860.27"/><polygon class="cls-6" points="557.21 618.32 565.07 628.13 561.14 633.47 539.84 633.74 536.21 644.09 528.08 649.13 500.63 644.66 489.14 652.79 469.55 649.97 472.91 634.31 477.68 624.5 468.14 623.09 460.85 617.21 466.73 610.76 481.88 605.45 506.51 615.8 503.42 629.54 528.35 636.26 527.51 617.21 540.68 618.62 557.21 618.32"/><polygon class="cls-5" points="410.57 1165.64 412.64 1169.09 366.08 1196.06 335.96 1119.02 372.02 1101.17 410.57 1165.64"/><polygon class="cls-3" points="406.55 1466.18 403.64 1470.29 336.95 1423.31 307.64 1418.48 143.96 1340.15 93.2 1323.5 88.37 1320.05 92.48 1314.32 148.52 1333.22 312.89 1411.04 342.65 1415.87 406.55 1466.18"/><polygon class="cls-3" points="218 2280.32 218.87 2300 216.41 2306.39 213.32 2305.19 205.94 2300.51 207.92 2297.39 207.05 2283.8 190.85 2272.43 198.2 2261.54 203.99 2265.44 218 2280.32"/><polygon class="cls-7" points="98.3 21.17 217.19 78.62 187.94 152.99 170.51 162.02 51.71 102.08 98.3 21.17"/><polygon class="cls-3" points="213.32 2305.19 202.37 2325.98 194.18 2323.64 196.55 2315.33 205.94 2300.51 213.32 2305.19"/></g></g></g></svg>